<?xml version="1.0" standalone="no"?>
<!DOCTYPE svg PUBLIC "-//W3C//DTD SVG 1.1//EN" "http://www.w3.org/Graphics/SVG/1.1/DTD/svg11.dtd" >
<svg>
<metadata>
Created by FontForge 20090914 at Mon Jul  1 15:07:19 2019
 By www-data
Copyright URW Software, Copyright 1994 by URW
</metadata>
<defs>
<font id="NeuzeitGroT-Regu" horiz-adv-x="500" >
  <font-face 
    font-family="Neuzeit Grotesk T"
    font-weight="400"
    font-stretch="normal"
    units-per-em="1000"
    panose-1="2 0 5 3 0 0 0 0 0 0"
    ascent="800"
    descent="-200"
    x-height="461"
    cap-height="667"
    bbox="-183 -233.999 948.001 868"
    underline-thickness="54"
    underline-position="-97"
    unicode-range="U+0020-U+FFFD"
  />
<missing-glyph horiz-adv-x="300" 
 />
    <glyph glyph-name=".notdef" unicode="&#xfffd;" horiz-adv-x="300" 
 />
    <glyph glyph-name="space" unicode=" " horiz-adv-x="300" 
 />
    <glyph glyph-name="exclam" unicode="!" horiz-adv-x="257" 
d="M168 667v-506h-77v506h77zM129 96c15.333 0 27.833 -4.99902 37.5 -14.999s14.5 -22.667 14.5 -38c0 -14.667 -5 -26.834 -15 -36.501s-22.333 -14.5 -37 -14.5c-15.333 0 -27.833 5 -37.5 15s-14.5 22.333 -14.5 37s4.83301 27 14.5 37s22.167 15 37.5 15z" />
    <glyph glyph-name="quotedbl" unicode="&#x22;" horiz-adv-x="337" 
d="M123 400h-62l-13 267h89zM276 400h-62l-13 267h88z" />
    <glyph glyph-name="numbersign" unicode="#" 
d="M440 289v-50h-103l-30 -212h-50l29 212h-88l-30 -212h-52l30 212h-107v50h114l14 94h-104v51h111l28 196h51l-27 -196h88l28 196h50l-27 -196h96v-51h-103l-13 -94h95zM309 385h-92l-14 -98h92z" />
    <glyph glyph-name="dollar" unicode="$" 
d="M263 583l-0.000976562 -215.997c47.333 -18 82 -34 104 -48c23.333 -14.667 42 -34.834 56 -60.501s21 -52.834 21 -81.501c0 -29.333 -7 -56.833 -21 -82.5s-33.667 -46.5 -59 -62.5s-59 -26.667 -101 -32v-93h-41v93c-38 2.66699 -70.667 13.334 -98 32.001
c-49.333 32 -74 75.667 -74 131c0 6 0.333008 11 1 15h69c-0.666992 -1.33301 -1 -3.33301 -1 -6c-2 -25.333 6.83301 -48 26.5 -68s45.167 -32 76.5 -36v237c-43.333 16 -76 31 -98 45c-47.333 31.333 -71 75.666 -71 132.999c0 28.667 6.83301 55.5 20.5 80.5
s32.167 45.167 55.5 60.5c24 14.667 55 24.334 93 29.001v72h41v-72c51.333 -6.66699 92 -24.834 122 -54.501s45.333 -66.834 46 -111.501h-71c-5.33301 54.667 -37.666 86.667 -96.999 96zM221.999 383.003v200.002c-31.333 -4 -55.333 -14.333 -72 -31
s-25 -38.334 -25 -65.001c0 -24.667 7.66699 -45.334 23 -62.001s40 -30.667 74 -42zM262.999 288.005v-220c32 2.66699 57.667 13.5 77 32.5s29 43.167 29 72.5c0 50.667 -35.333 89 -106 115z" />
    <glyph glyph-name="percent" unicode="%" horiz-adv-x="611" 
d="M255 548l0.00195312 -107.999c0 -74 -34.667 -111 -104 -111c-35.333 0 -62.666 10.667 -81.999 32c-8.66699 9.33301 -14.334 19.5 -17.001 30.5s-4 28.833 -4 53.5v102c0 44.667 8.33301 75.667 25 93c18.667 20 45 30 79 30c29.333 0 54.666 -9 75.999 -27
c11.333 -11.333 18.666 -22.833 21.999 -34.5s5 -31.834 5 -60.501zM97.002 546.001l-0.000976562 -92c0 -29.333 3 -48.666 9 -57.999c10 -14 25.333 -21 46 -21c22.667 0 38.334 8 47.001 24c5.33301 10 8 27.333 8 52v103c0 46 -18 69 -54 69
c-21.333 0 -36.333 -6 -45 -18c-7.33301 -8.66699 -11 -28.334 -11 -59.001zM563.001 215.001l0.000976562 -108c0 -73.333 -34.667 -110 -104 -110c-35.333 0 -62.666 10.667 -81.999 32c-8.66699 9.33301 -14.334 19.333 -17.001 30s-4 28.334 -4 53.001v102
c0 44.667 8.33301 75.667 25 93c18.667 20 45 30 79 30c30.667 0 56 -9 76 -27c11.333 -10.667 18.666 -21.834 21.999 -33.501s5 -32.167 5 -61.5zM405.002 213.001l-0.000976562 -91.999c0 -28.667 3 -47.667 9 -57c10 -14 25.333 -21 46 -21c22.667 0 38.334 8 47.001 24
c5.33301 10 8 27 8 51v103c0 46 -18 69 -54 69c-21.333 0 -36.333 -6 -45 -18c-7.33301 -8.66699 -11 -28.334 -11 -59.001zM551.001 653.002l-458 -661l-32 23l457 660z" />
    <glyph glyph-name="ampersand" unicode="&#x26;" horiz-adv-x="597" 
d="M468 138l105 -138h-84l-67 91c-39.333 -38.667 -73 -65.667 -101 -81s-58 -23 -90 -23c-52.667 0 -97.167 18.333 -133.5 55s-54.5 81.667 -54.5 135c0 41.333 11.333 76.5 34 105.5s64.334 62.167 125.001 99.5c-24.667 34 -40.834 59.333 -48.501 76
s-11.5 34.667 -11.5 54c0 35.333 13.167 65 39.5 89s58.833 36 97.5 36c38 0 69.667 -11.667 95 -35s38 -52.333 38 -87c0 -38 -14.333 -70.667 -43 -98c-12.667 -12.667 -35 -29.667 -67 -51l125 -172l95 98l51 -48zM263 419c30 19.333 50.168 35.332 60.501 47.999
s15.5 28.334 15.5 47.001c0 17.333 -5.5 31.333 -16.5 42s-25.167 16 -42.5 16c-18.667 0 -33.834 -5.5 -45.501 -16.5s-17.5 -25.5 -17.5 -43.5c0 -14.667 2.5 -27 7.5 -37s17.833 -28.667 38.5 -56zM377.001 146.999l-136 180.002
c-36 -24.667 -61.333 -43.334 -76 -56.001c-30.667 -26.667 -46 -58.334 -46 -95.001c0 -32 11.333 -59.667 34 -83s49.667 -35 81 -35c24 0 45.333 5.83301 64 17.5s45 35.5 79 71.5z" />
    <glyph glyph-name="quotesingle" unicode="'" horiz-adv-x="186" 
d="M126 400h-65l-13 267h91z" />
    <glyph glyph-name="parenleft" unicode="(" horiz-adv-x="301" 
d="M265 -186l-49.999 -47.998c-114.667 140.667 -172 292 -172 454c0 86 15.167 169.667 45.5 251s73.166 153.333 128.499 216l48 -50c-100.667 -126 -151 -264 -151 -414c0 -72.667 13 -144.334 39 -215.001s63.333 -135.334 112 -194.001z" />
    <glyph glyph-name="parenright" unicode=")" horiz-adv-x="301" 
d="M35 639l49.999 48.002c59.333 -72.667 102.833 -145.5 130.5 -218.5s41.5 -151.5 41.5 -235.5c0 -86.667 -15.167 -170.334 -45.5 -251.001s-73.166 -152.667 -128.499 -216l-48 50c100.667 124.667 151 262.667 151 414s-50.333 287.666 -151 408.999z" />
    <glyph glyph-name="asterisk" unicode="*" horiz-adv-x="423" 
d="M209 472l-70 -95l-40 30l71 94l-112 36l15 46l112 -33v115h48v-115l114 36l16 -47l-117 -38l72 -94l-37 -30z" />
    <glyph glyph-name="plus" unicode="+" 
d="M22 364h205v193h46v-193h205v-44h-205v-193h-46v193h-205v44z" />
    <glyph glyph-name="comma" unicode="," horiz-adv-x="231" 
d="M169 78l-101 -237l-55 17l84 243z" />
    <glyph glyph-name="hyphen" unicode="-" horiz-adv-x="207" 
d="M207 277v-69h-207v69h207z" />
    <glyph glyph-name="period" unicode="." horiz-adv-x="231" 
d="M115 96c15.333 0 27.833 -4.99902 37.5 -14.999s14.5 -22.667 14.5 -38c0 -14.667 -5 -26.834 -15 -36.501s-22.333 -14.5 -37 -14.5c-15.333 0 -27.833 5 -37.5 15s-14.5 22.333 -14.5 37s4.83301 27 14.5 37s22.167 15 37.5 15z" />
    <glyph glyph-name="slash" unicode="/" horiz-adv-x="395" 
d="M357 667l-335 -883h-65l335 883h65z" />
    <glyph glyph-name="zero" unicode="0" 
d="M448 466l-0.000976562 -265c0 -70.667 -15.667 -122.667 -47 -156c-35.333 -37.333 -85.666 -56 -150.999 -56c-67.333 0 -118.666 19.333 -153.999 58c-17.333 18.667 -29 40 -35 64s-9 61.333 -9 112v220c0 43.333 3 77 9 101s16.333 45 31 63c34 41.333 86 62 156 62
c61.333 0 110.666 -16.667 147.999 -50c19.333 -17.333 32.833 -37.5 40.5 -60.5s11.5 -53.833 11.5 -92.5zM130.999 441l-0.00195312 -223c0 -38.667 1.5 -64.5 4.5 -77.5s9.83301 -25.833 20.5 -38.5c22.667 -26 54.334 -39 95.001 -39c44.667 0 77.334 14.667 98.001 44
c14 20.667 21 53.667 21 99v255c0 46 -11.333 80 -34 102c-22.667 20.667 -51 31 -85 31c-46.667 0 -79.667 -16 -99 -48c-14 -20 -21 -55 -21 -105z" />
    <glyph glyph-name="one" unicode="1" 
d="M258 546l-147 -98v76l226 148v-672h-79v546z" />
    <glyph glyph-name="two" unicode="2" 
d="M182 73l235.001 0.000976562v-73h-374l232 332c33.333 48.667 55.333 83.667 66 105s16 42 16 62c0 28.667 -10.333 52.334 -31 71.001s-47.334 28 -80.001 28c-48.667 0 -81 -18.667 -97 -56c-7.33301 -17.333 -11.333 -40.333 -12 -69h-75c2 63.333 19.333 112 52 146
s78.667 51 138 51c54.667 0 99.167 -15.333 133.5 -46s51.5 -70.334 51.5 -119.001c0 -28 -5.66699 -55.833 -17 -83.5s-31 -60.834 -59 -99.501z" />
    <glyph glyph-name="three" unicode="3" 
d="M305 585l-232.999 0.000976562v72h378l-196 -249c58 0 105.5 -18.833 142.5 -56.5s55.5 -85.834 55.5 -144.501c0 -62.667 -21 -114.667 -63 -156s-94.667 -62 -158 -62c-52.667 0 -96.834 14 -132.501 42s-59.167 67.333 -70.5 118l72 13
c8.66699 -32 24.167 -56.667 46.5 -74s49.166 -26 80.499 -26c40.667 0 75 13.5 103 40.5s42 59.833 42 98.5c0 40 -13.667 72.667 -41 98s-62.666 38 -105.999 38c-27.333 0 -54 -7.66699 -80 -23l-33 29z" />
    <glyph glyph-name="four" unicode="4" 
d="M306 150h-267v62l344 464v-454h78v-72h-78v-150h-77v150zM306 222v255l-187 -255h187z" />
    <glyph glyph-name="five" unicode="5" 
d="M370 667l-0.00390625 -76.001h-215v-179c33.333 12.667 66 19 98 19c59.333 0 108.333 -20.5 147 -61.5s58 -92.833 58 -155.5c0 -64 -21.167 -116.833 -63.5 -158.5s-96.166 -62.5 -161.499 -62.5c-46.667 0 -87.167 11.833 -121.5 35.5s-60.166 57.5 -77.499 101.5
l73 27c14 -26.667 25 -43.667 33 -51c22.667 -22.667 54.334 -34 95.001 -34c40 0 73.5 13.833 100.5 41.5s40.5 61.834 40.5 102.501c0 42.667 -13.667 77 -41 103s-63 39 -107 39c-53.333 0 -102.666 -22.667 -147.999 -68v377h290z" />
    <glyph glyph-name="six" unicode="6" 
d="M372 657l-171 -267c24 8.66699 45.667 13 65 13c55.333 0 102 -19.167 140 -57.5s57 -85.833 57 -142.5c0 -59.333 -21.167 -110 -63.5 -152s-92.833 -63 -151.5 -63c-59.333 0 -109.333 20.667 -150 62s-61 92.333 -61 153c0 43.333 17 92.333 51 147l191 307h93z
M252 335c-38 0 -70.166 -12.8311 -96.499 -38.498s-39.5 -56.834 -39.5 -93.501c0 -39.333 13 -72.5 39 -99.5s57.667 -40.5 95 -40.5s69.166 13.333 95.499 40s39.5 59 39.5 97c0 37.333 -13 69.166 -39 95.499s-57.333 39.5 -94 39.5z" />
    <glyph glyph-name="seven" unicode="7" 
d="M340 583h-256v74h370l-264 -657h-86z" />
    <glyph glyph-name="eight" unicode="8" 
d="M330 362c84.667 -25.333 127 -82.666 127 -171.999c0 -58.667 -19.5 -107 -58.5 -145s-89.167 -57 -150.5 -57c-60.667 0 -110.167 18.167 -148.5 54.5s-57.5 83.166 -57.5 140.499c0 54.667 16.667 99.334 50 134.001c18 18.667 44 33.667 78 45
c-29.333 10 -52 24.667 -68 44c-22.667 28 -34 60.667 -34 98c0 47.333 17.5 86.666 52.5 117.999s78.833 47 131.5 47s96 -15.5 130 -46.5s51 -70.167 51 -117.5c0 -39.333 -12.333 -73.333 -37 -102c-15.333 -17.333 -37.333 -31 -66 -41zM252 599
c-32 0 -58.001 -8.99902 -78.001 -26.999s-30 -41 -30 -69c0 -28.667 10.333 -52.834 31 -72.501s45.667 -29.5 75 -29.5c28.667 0 53.834 10.167 75.501 30.5s32.5 43.833 32.5 70.5c0 26 -10.5 48.667 -31.5 68s-45.833 29 -74.5 29zM250.999 320.001
c-36 0 -66.666 -12.499 -91.999 -37.499s-38 -55.5 -38 -91.5c0 -35.333 12.5 -65.666 37.5 -90.999s55.167 -38 90.5 -38s65.5 12.667 90.5 38s37.5 55.666 37.5 90.999s-12.333 65.666 -37 90.999s-54.334 38 -89.001 38z" />
    <glyph glyph-name="nine" unicode="9" 
d="M132 0l167.999 266.999c-24 -8.66699 -45.333 -13 -64 -13c-56 0 -103.167 19.5 -141.5 58.5s-57.5 86.833 -57.5 143.5c0 59.333 20.833 109.666 62.5 150.999s92.834 62 153.501 62c60 0 110 -20.167 150 -60.5s60 -90.166 60 -149.499
c0 -45.333 -15.333 -93.666 -46 -144.999l-192 -314h-93zM252.999 594.999c-38 0 -70.334 -13.168 -97.001 -39.501s-40 -58.5 -40 -96.5c0 -37.333 12.833 -69.166 38.5 -95.499s57.167 -39.5 94.5 -39.5c38.667 0 70.834 12.833 96.501 38.5s38.5 57.5 38.5 95.5
c0 38.667 -12.667 71.167 -38 97.5s-56.333 39.5 -93 39.5z" />
    <glyph glyph-name="colon" unicode=":" horiz-adv-x="231" 
d="M115 96c15.333 0 27.833 -4.99902 37.5 -14.999s14.5 -22.667 14.5 -38c0 -14.667 -5 -26.834 -15 -36.501s-22.333 -14.5 -37 -14.5c-15.333 0 -27.833 5 -37.5 15s-14.5 22.333 -14.5 37s4.83301 27 14.5 37s22.167 15 37.5 15zM115 384.001
c15.333 0 27.833 -4.99902 37.5 -14.999s14.5 -22.667 14.5 -38c0 -14.667 -5 -26.834 -15 -36.501s-22.333 -14.5 -37 -14.5c-15.333 0 -27.833 5 -37.5 15s-14.5 22.333 -14.5 37s4.83301 27 14.5 37s22.167 15 37.5 15z" />
    <glyph glyph-name="semicolon" unicode=";" horiz-adv-x="231" 
d="M169 78l-101 -237l-55 17l84 243zM121 379c15.333 0 27.833 -4.99902 37.5 -14.999s14.5 -22.667 14.5 -38c0 -14.667 -5 -26.834 -15 -36.501s-22.333 -14.5 -37 -14.5c-15.333 0 -27.833 4.83301 -37.5 14.5s-14.5 22.167 -14.5 37.5s4.83301 27.833 14.5 37.5
s22.167 14.5 37.5 14.5z" />
    <glyph glyph-name="less" unicode="&#x3c;" 
d="M466 577v-83l-344 -159l344 -159v-83l-433 207v71z" />
    <glyph glyph-name="equal" unicode="=" 
d="M22 434h456v-43h-456v43zM22 293h456v-43h-456v43z" />
    <glyph glyph-name="greater" unicode="&#x3e;" 
d="M34 93v83l344 159l-344 160v82l433 -206v-72z" />
    <glyph glyph-name="question" unicode="?" horiz-adv-x="426" 
d="M220 165l-75 0.00292969c-0.666992 70 3.33301 116.167 12 138.5s33 49.166 73 80.499c28 21.333 47 40 57 56s15 35.667 15 59c0 30.667 -9.33301 55.834 -28 75.501s-42.334 29.5 -71.001 29.5c-27.333 0 -50.166 -8.66699 -68.499 -26s-27.5 -39 -27.5 -65v-13h-73
c0.666992 53.333 16 95.666 46 126.999s70.667 47 122 47s93.833 -16.333 127.5 -49s50.5 -74 50.5 -124c0 -33.333 -7.66699 -62.833 -23 -88.5s-41 -51.834 -77 -78.501c-26.667 -20.667 -43.5 -37.834 -50.5 -51.501s-10.5 -37.167 -10.5 -70.5
c0 -18 0.333008 -33.667 1 -47zM185 96.0029c15.333 0 27.833 -4.99902 37.5 -14.999s14.5 -22.667 14.5 -38c0 -14.667 -5 -26.834 -15 -36.501s-22.333 -14.5 -37 -14.5c-15.333 0 -27.833 5 -37.5 15s-14.5 22.333 -14.5 37s4.83301 27 14.5 37s22.167 15 37.5 15z" />
    <glyph glyph-name="at" unicode="@" horiz-adv-x="777" 
d="M662 182l43.0049 0.00195312c-20.667 -46 -48.334 -83 -83.001 -111c-65.333 -52.667 -140 -79 -224 -79c-89.333 0 -166.5 33.333 -231.5 100s-97.5 145.334 -97.5 236.001c0 94 33.167 174.333 99.5 241s146.166 100 239.499 100
c83.333 0 154.666 -27.167 213.999 -81.5s89 -119.833 89 -196.5s-27 -141.334 -81 -194.001c-46.667 -44.667 -95 -67 -145 -67c-42.667 0 -66.667 17.333 -72 52c-39.333 -34.667 -77 -52 -113 -52c-32 0 -58.167 11.833 -78.5 35.5s-30.5 54.167 -30.5 91.5
c0 72 21.833 135.667 65.5 191s93.834 83 150.501 83c21.333 0 38.666 -3.66699 51.999 -11s26 -20.333 38 -39l13 36h80l-95 -269c-11.333 -32.667 -17 -54.334 -17 -65.001c0 -13.333 7.66699 -20 23 -20c20.667 0 42 7.33301 64 22c32 20.667 57.5 49.5 76.5 86.5
s28.5 76.167 28.5 117.5c0 66 -26 122.5 -78 169.5s-114.333 70.5 -187 70.5c-82.667 0 -152.834 -29.167 -210.501 -87.5s-86.5 -129.166 -86.5 -212.499c0 -82.667 28.667 -152.834 86 -210.501s126.666 -86.5 207.999 -86.5c38 0 75.333 7.16699 112 21.5
s68 34.166 94 59.499c12.667 13.333 30.667 36.333 54 69zM421.005 270.002l53 148c2 6 3 13 3 21c0 18 -4.66699 32.667 -14 44s-21.666 17 -36.999 17c-31.333 0 -63 -25.667 -95 -77c-18.667 -30.667 -34.334 -66 -47.001 -106s-19 -74.333 -19 -103
c0 -15.333 4.5 -27.833 13.5 -37.5s20.833 -14.5 35.5 -14.5c20.667 0 38 7.66699 52 23c9.33301 10 19.833 24 31.5 42s19.5 32.333 23.5 43z" />
    <glyph glyph-name="A" unicode="A" horiz-adv-x="606" 
d="M452 154h-299l-61 -154h-87l251 667h100l245 -667h-94zM426 226l-122 335l-126 -335h248z" />
    <glyph glyph-name="B" unicode="B" horiz-adv-x="551" 
d="M83 667l188 0.00292969c68 0 120.5 -15.333 157.5 -46s55.5 -74.334 55.5 -131.001c0 -44.667 -12.667 -80.667 -38 -108c-15.333 -16.667 -38 -31 -68 -43c32.667 -6.66699 58 -17.334 76 -32.001c36.667 -28.667 55 -71 55 -127c0 -31.333 -6.33301 -59.833 -19 -85.5
s-30.334 -45.834 -53.001 -60.501c-35.333 -22.667 -90.666 -34 -165.999 -34h-188v667zM167 598.003v-229.998h85c50 0 86.333 9 109 27c27.333 21.333 41 51.666 41 90.999c0 22 -4.66699 41.667 -14 59s-22.333 29.666 -39 36.999c-21.333 10.667 -59 16 -113 16h-69z
M167 300.005l-0.000976562 -232h84c58.667 0 100.667 7.33301 126 22c32 18 48 49.667 48 95c0 40 -12.167 69.167 -36.5 87.5s-63.166 27.5 -116.499 27.5h-105z" />
    <glyph glyph-name="C" unicode="C" horiz-adv-x="630" 
d="M550 157l56.002 -56.001c-33.333 -39.333 -69.5 -68 -108.5 -86s-84.167 -27 -135.5 -27c-92.667 0 -168.834 32.333 -228.501 97s-89.5 147.334 -89.5 248.001c0 100 30.167 182.667 90.5 248s136.5 98 228.5 98c62 0 117.667 -15 167 -45
c23.333 -14.667 49.333 -37.667 78 -69l-58 -54c-32.667 33.333 -62.834 56.833 -90.501 70.5s-59.167 20.5 -94.5 20.5c-68 0 -124.167 -25.333 -168.5 -76s-66.5 -115 -66.5 -193c0 -77.333 22.5 -141.333 67.5 -192s102.167 -76 171.5 -76c70 0 130.333 30.667 181 92z
" />
    <glyph glyph-name="D" unicode="D" horiz-adv-x="626" 
d="M83 0l-0.000976562 667h177c100.667 0 179.5 -28.667 236.5 -86s85.5 -136.333 85.5 -237c0 -116 -35 -205 -105 -267c-57.333 -51.333 -134.666 -77 -231.999 -77h-162zM166.999 596v-524h30c56 0 98.833 3.5 128.5 10.5s56.5 20.167 80.5 39.5c60 48 90 121.667 90 221
c0 80.667 -20.667 143 -62 187s-100.333 66 -177 66h-90z" />
    <glyph glyph-name="E" unicode="E" horiz-adv-x="473" 
d="M159 595v-223h263v-72h-263v-228h263v-72h-347v667h347v-72h-263z" />
    <glyph glyph-name="F" unicode="F" horiz-adv-x="456" 
d="M167 595v-223h260v-72h-260v-300h-84v667h344v-72h-260z" />
    <glyph glyph-name="G" unicode="G" horiz-adv-x="732" 
d="M374 361h317.999c0.666992 -9.33301 1 -22 1 -38c0 -84 -23 -155 -69 -213c-65.333 -81.333 -149 -122 -251 -122c-95.333 0 -174 32.5 -236 97.5s-93 147.167 -93 246.5c0 100.667 31 183.667 93 249s140.667 98 236 98c103.333 0 187 -40.333 251 -121l-63 -51
c-23.333 26 -42 43.667 -56 53c-38.667 28 -82.667 42 -132 42c-69.333 0 -127.166 -25.667 -173.499 -77s-69.5 -115.333 -69.5 -192c0 -75.333 23.167 -138.833 69.5 -190.5s103.5 -77.5 171.5 -77.5c37.333 0 73.5 9 108.5 27s62.833 41.667 83.5 71
c22 30 36.333 72 43 126h-232v72z" />
    <glyph glyph-name="H" unicode="H" horiz-adv-x="659" 
d="M167 295v-295h-84v667h84v-300h325v300h84v-667h-84v295h-325z" />
    <glyph glyph-name="I" unicode="I" horiz-adv-x="250" 
d="M167 667v-667h-84v667h84z" />
    <glyph glyph-name="J" unicode="J" horiz-adv-x="374" 
d="M303 667l-0.000976562 -461c0 -72 -19.667 -125 -59 -159s-101 -51 -185 -51c-12.667 0 -23.667 0.333008 -33 1v73c13.333 -1.33301 27 -2 41 -2c50 0 87.667 11.667 113 35c14.667 14 24.834 32 30.501 54s8.5 54 8.5 96v342h-193v72h277z" />
    <glyph glyph-name="K" unicode="K" horiz-adv-x="539" 
d="M167 308v-308h-84v667h84v-307l259 307h101l-278 -330l278 -337h-107z" />
    <glyph glyph-name="L" unicode="L" horiz-adv-x="427" 
d="M167 76h235v-76h-319v667h84v-591z" />
    <glyph glyph-name="M" unicode="M" horiz-adv-x="828" 
d="M167 489v-489h-84v667h83l247 -500l250 500h82v-667h-84v488l-248 -495z" />
    <glyph glyph-name="N" unicode="N" horiz-adv-x="683" 
d="M167 510v-510h-84v667h77l356 -502v502h84v-667h-74z" />
    <glyph glyph-name="O" unicode="O" horiz-adv-x="742" 
d="M374 679c48.667 0 95.3301 -10.999 139.997 -32.999s82.334 -52.667 113.001 -92c47.333 -58.667 71 -134.334 71 -227.001c0 -112.667 -41 -201.667 -123 -267c-59.333 -48 -127 -72 -203 -72c-51.333 0 -100.666 12 -147.999 36s-86.333 57 -117 99
c-42 57.333 -63 126.333 -63 207c0 99.333 31.333 182.333 94 249s141.334 100 236.001 100zM371.996 601.001c-69.333 0 -126.999 -25.501 -172.999 -76.501s-69 -114.833 -69 -191.5c0 -77.333 22.667 -141.333 68 -192s102.666 -76 171.999 -76
c35.333 0 69.333 7.83301 102 23.5s60 36.834 82 63.501c17.333 20.667 31.333 47.167 42 79.5s16 64.5 16 96.5c0 91.333 -27.333 161.333 -82 210c-46 42 -98.667 63 -158 63z" />
    <glyph glyph-name="P" unicode="P" horiz-adv-x="531" 
d="M167 255v-255h-84v667h178c79.333 0 140 -17.5 182 -52.5s63 -85.833 63 -152.5c0 -37.333 -7.83301 -71.333 -23.5 -102s-37.5 -54.667 -65.5 -72c-34 -22 -83 -33 -147 -33h-103zM167 327l87 -0.00292969c34.667 0 62.334 4 83.001 12
c25.333 9.33301 45.666 24.833 60.999 46.5s23 46.834 23 75.501s-7.5 53.834 -22.5 75.501s-35.833 36.834 -62.5 45.501c-25.333 8.66699 -56.333 13 -93 13h-76v-268z" />
    <glyph glyph-name="Q" unicode="Q" horiz-adv-x="747" 
d="M703 33l-58.001 -53.001l-71 80c-62.667 -48 -130 -72 -202 -72c-47.333 0 -93.666 10.833 -138.999 32.5s-83.333 50.834 -114 87.501c-48.667 60 -73 134 -73 222c0 100 31.167 183.167 93.5 249.5s140.833 99.5 235.5 99.5c93.333 0 171 -32.667 233 -98
s93 -147 93 -245c0 -84.667 -24 -159 -72 -223zM524.999 225.999l47.999 -52.001c27.333 50 41 102.667 41 158c0 77.333 -22.667 141.5 -68 192.5s-102.666 76.5 -171.999 76.5c-38 0 -74.333 -9 -109 -27s-63 -42.667 -85 -74c-32 -45.333 -48 -100.666 -48 -165.999
c0 -78 22.5 -142.167 67.5 -192.5s102.167 -75.5 171.5 -75.5c54 0 102.667 18.333 146 55l-49 55z" />
    <glyph glyph-name="R" unicode="R" horiz-adv-x="560" 
d="M167 280l0.00195312 -279.999h-84v667h182c71.333 0 127.166 -17.167 167.499 -51.5s60.5 -81.833 60.5 -142.5c0 -78.667 -33.333 -135.334 -100 -170.001c-26.667 -14 -66.334 -22.667 -119.001 -26l259 -277h-107zM167.002 337.001h83.999
c50.667 0 89.334 11.167 116.001 33.5s40 54.5 40 96.5c0 41.333 -12.167 73 -36.5 95s-59.5 33 -105.5 33h-98v-258z" />
    <glyph glyph-name="S" unicode="S" horiz-adv-x="490" 
d="M38 179h80.001c4 -77.333 43.333 -116 118 -116c37.333 0 68 10.5 92 31.5s36 48.167 36 81.5c0 29.333 -9.33301 52.333 -28 69s-54.334 33.667 -107.001 51c-65.333 22 -110.333 44.333 -135 67c-34.667 31.333 -52 73.333 -52 126c0 56.667 18.333 102.5 55 137.5
s84.667 52.5 144 52.5c58.667 0 106 -17.333 142 -52s54.667 -81 56 -139h-84c-0.666992 29.333 -6 52.333 -16 69c-20.667 31.333 -53.667 47 -99 47c-33.333 0 -60.5 -10.167 -81.5 -30.5s-31.5 -46.5 -31.5 -78.5c0 -33.333 12.667 -59 38 -77
c17.333 -12 53 -27.667 107 -47c64.667 -22.667 108.667 -46.667 132 -72c30 -32 45 -71.333 45 -118c0 -57.333 -19.333 -103.833 -58 -139.5s-89.334 -53.5 -152.001 -53.5c-83.333 0 -142.666 30 -177.999 90c-15.333 26 -23 55 -23 87v14z" />
    <glyph glyph-name="T" unicode="T" horiz-adv-x="443" 
d="M264 595v-595h-84v595h-170v72h423v-72h-169z" />
    <glyph glyph-name="U" unicode="U" horiz-adv-x="636" 
d="M155 667l0.00488281 -397.001c0 -42.667 3.33301 -76 10 -100s18 -44 34 -60c31.333 -30 70.666 -45 117.999 -45s86.666 16.333 117.999 49c18 17.333 30 36.833 36 58.5s9 54.834 9 99.501v395h86v-395c0 -50 -4.5 -90.667 -13.5 -122s-24.167 -59 -45.5 -83
c-46.667 -52.667 -109.334 -79 -188.001 -79c-82.667 0 -147.334 28 -194.001 84c-20.667 23.333 -34.834 49.5 -42.501 78.5s-11.5 69.5 -11.5 121.5v395h84z" />
    <glyph glyph-name="V" unicode="V" horiz-adv-x="549" 
d="M272 137l183 530h89l-232 -667h-82l-225 667h88z" />
    <glyph glyph-name="W" unicode="W" horiz-adv-x="861" 
d="M616 154l153 513h87l-204 -667h-74l-147 524l-148 -524h-74l-204 667h89l152 -511l148 511h79z" />
    <glyph glyph-name="X" unicode="X" horiz-adv-x="552" 
d="M278 266l-170 -266h-102l223 340l-215 327h101l163 -253l164 253h98l-214 -327l220 -340h-97z" />
    <glyph glyph-name="Y" unicode="Y" horiz-adv-x="529" 
d="M308 294v-294h-84v294l-230 373h99l172 -286l170 286h100z" />
    <glyph glyph-name="Z" unicode="Z" horiz-adv-x="539" 
d="M152 72h338v-72h-477l378 595h-336v72h474z" />
    <glyph glyph-name="bracketleft" unicode="[" horiz-adv-x="300" 
d="M77 667h161v-50h-94v-783h94v-50h-161v883z" />
    <glyph glyph-name="backslash" unicode="\" horiz-adv-x="395" 
d="M37 667h65l335 -883h-65z" />
    <glyph glyph-name="bracketright" unicode="]" horiz-adv-x="300" 
d="M223 667v-883h-161v50h94v783h-94v50h161z" />
    <glyph glyph-name="asciicircum" unicode="^" 
d="M108 373h-78l173 295h94l172 -295h-78l-142 239z" />
    <glyph glyph-name="underscore" unicode="_" 
d="M0 -70h500v-54h-500v54z" />
    <glyph glyph-name="grave" unicode="`" 
d="M207 660l82 -132h-54l-118 132h90z" />
    <glyph glyph-name="a" unicode="a" horiz-adv-x="577" 
d="M424 385l0.00195312 75.999h76v-461h-76v89c-44.667 -66.667 -100.667 -100 -168 -100c-63.333 0 -115.333 22.5 -156 67.5s-61 102.5 -61 172.5c0 70.667 20.667 128.834 62 174.501s93.666 68.5 156.999 68.5c67.333 0 122.666 -29 165.999 -87zM269.002 403.999
c-50.667 0 -89.333 -19.999 -116 -59.999c-22.667 -32.667 -34 -71.667 -34 -117c0 -48.667 14.167 -89.5 42.5 -122.5s63.5 -49.5 105.5 -49.5c43.333 0 80.5 17.667 111.5 53s46.5 77.666 46.5 126.999c0 50 -14.5 90.667 -43.5 122s-66.5 47 -112.5 47z" />
    <glyph glyph-name="b" unicode="b" horiz-adv-x="573" 
d="M152 79l-0.000976562 -79h-76v667h76v-285c44 60 98 90 162 90c64.667 0 117.334 -22.667 158.001 -68s61 -103.666 61 -174.999c0 -70.667 -20 -128.334 -60 -173.001s-91.667 -67 -155 -67c-68 0 -123.333 30 -166 90zM303.999 404
c-44 0 -80.501 -16.3311 -109.501 -48.998s-43.5 -74.334 -43.5 -125.001c0 -52.667 13.833 -95 41.5 -127s63.834 -48 108.501 -48c45.333 0 82 15.833 110 47.5s42 73.167 42 124.5s-14 93.666 -42 126.999s-63.667 50 -107 50z" />
    <glyph glyph-name="c" unicode="c" horiz-adv-x="457" 
d="M388 109l47.002 -51.999c-50 -45.333 -106.667 -68 -170 -68c-66 0 -120.167 22.5 -162.5 67.5s-63.5 102.5 -63.5 172.5c0 71.333 21.5 129.666 64.5 174.999s98.167 68 165.5 68c65.333 0 121.333 -23 168 -69l-49 -49c-34.667 32 -73.667 48 -117 48
c-45.333 0 -82.333 -15.833 -111 -47.5s-43 -72.5 -43 -122.5c0 -50.667 14.167 -92.167 42.5 -124.5s65.166 -48.5 110.499 -48.5c43.333 0 82.666 16.667 117.999 50z" />
    <glyph glyph-name="d" unicode="d" horiz-adv-x="574" 
d="M421 391v275.999h76v-667h-76v79c-23.333 -31.333 -48 -54.166 -74 -68.499s-56.333 -21.5 -91 -21.5c-63.333 0 -115.333 22.333 -156 67s-61 102 -61 172s20.5 128.167 61.5 174.5s92.833 69.5 155.5 69.5c66.667 0 121.667 -27 165 -81zM272 403.999
c-45.333 0 -82.167 -16.332 -110.5 -48.999s-42.5 -75.334 -42.5 -128.001c0 -50.667 13.833 -92 41.5 -124s63.167 -48 106.5 -48c44.667 0 81.5 16.5 110.5 49.5s43.5 74.5 43.5 124.5c0 52 -13.833 94.167 -41.5 126.5s-63.5 48.5 -107.5 48.5z" />
    <glyph glyph-name="e" unicode="e" horiz-adv-x="539" 
d="M504 206h-384.001c5.33301 -44.667 21.833 -80.334 49.5 -107.001s62.5 -40 104.5 -40c28.667 0 55.5 7.16699 80.5 21.5s44.167 33.5 57.5 57.5l67 -25c-18.667 -38.667 -46.5 -69 -83.5 -91s-77.5 -33 -121.5 -33c-68.667 0 -125 22.5 -169 67.5s-66 102.5 -66 172.5
c0 70.667 21.833 128.834 65.5 174.501s99.167 68.5 166.5 68.5c66.667 0 122.334 -22.5 167.001 -67.5s67 -101.167 67 -168.5c0 -12.667 -0.333008 -22.667 -1 -30zM120.999 262l303 0.000976562c-2.66699 31.333 -11.334 57.666 -26.001 78.999
c-31.333 42 -73.666 63 -126.999 63c-54 0 -95.333 -21.333 -124 -64c-12 -18.667 -20.667 -44.667 -26 -78z" />
    <glyph glyph-name="f" unicode="f" horiz-adv-x="259" 
d="M160 394l0.000976562 -394h-76v394h-63v67h63v62c0 46 11.167 81.667 33.5 107s53.5 38 93.5 38c8.66699 0 15.667 -0.333008 21 -1v-68c-28.667 -4 -47.834 -11 -57.501 -21s-14.5 -28.333 -14.5 -55v-62h72v-67h-72z" />
    <glyph glyph-name="g" unicode="g" horiz-adv-x="570" 
d="M417 382l0.000976562 78.998h76v-464c0 -74 -20.333 -130.333 -61 -169c-42 -40.667 -98.667 -61 -170 -61c-86 0 -154 28 -204 84l52 52c18 -18.667 32.667 -32 44 -40c29.333 -18 65.333 -27 108 -27c52 0 92 15 120 45c23.333 25.333 35 62 35 110v97
c-44 -66 -100.667 -99 -170 -99c-60.667 0 -111.334 22.833 -152.001 68.5s-61 102.834 -61 171.501c0 72.667 20.167 131.334 60.5 176.001s93.166 67 158.499 67c34.667 0 64.834 -7 90.501 -21s50.167 -37 73.5 -69zM267.001 401.998
c-44.667 0 -81.334 -15.834 -110.001 -47.501s-43 -72.5 -43 -122.5c0 -49.333 14.333 -90.5 43 -123.5s64.667 -49.5 108 -49.5c22.667 0 44.834 5.33301 66.501 16s39.5 25.334 53.5 44.001c20 25.333 30 62 30 110c0 56.667 -13.333 98.667 -40 126
c-29.333 31.333 -65.333 47 -108 47z" />
    <glyph glyph-name="h" unicode="h" horiz-adv-x="508" 
d="M152 667l-0.000976562 -270c40.667 50 87 75 139 75c44.667 0 80.334 -14 107.001 -42c24 -24 36 -64 36 -120v-310h-76v306c0 31.333 -7.5 55.5 -22.5 72.5s-36.167 25.5 -63.5 25.5c-36 0 -66 -13.667 -90 -41c-20 -22.667 -30 -53.667 -30 -93v-270h-76v667h76z" />
    <glyph glyph-name="i" unicode="i" horiz-adv-x="229" 
d="M152 461v-461h-76v461h76zM115 640c14 0 25.667 -4.83398 35 -14.501s14 -21.5 14 -35.5c0 -13.333 -4.83301 -24.666 -14.5 -33.999s-21.167 -14 -34.5 -14c-14 0 -25.667 4.66699 -35 14s-14 21 -14 35s4.66699 25.667 14 35s21 14 35 14z" />
    <glyph glyph-name="j" unicode="j" horiz-adv-x="229" 
d="M152 461l0.000976562 -509c0 -59.333 -13 -103 -39 -131c-28.667 -32 -67.334 -48 -116.001 -48h-20v72h11c26.667 0.666992 48 10.667 64 30s24 45 24 77v509h76zM115.001 640c14 0 25.667 -4.83398 35 -14.501s14 -21.5 14 -35.5
c0 -13.333 -4.83301 -24.666 -14.5 -33.999s-21.167 -14 -34.5 -14c-14 0 -25.667 4.66699 -35 14s-14 21 -14 35s4.66699 25.667 14 35s21 14 35 14z" />
    <glyph glyph-name="k" unicode="k" horiz-adv-x="444" 
d="M152 206v-206h-76v667h76v-408l184 202h96l-206 -225l205 -236h-95z" />
    <glyph glyph-name="l" unicode="l" horiz-adv-x="229" 
d="M152 0h-76v667h76v-667z" />
    <glyph glyph-name="m" unicode="m" horiz-adv-x="772" 
d="M76 461h76v-64c33.333 50 77 75 131 75c62 0 103.333 -28 124 -84c32 56 80.667 84 146 84c53.333 0 92.333 -16.333 117 -49c11.333 -14.667 18.833 -30.667 22.5 -48s5.5 -44 5.5 -80v-295h-76v277c0 44 -4.33301 73.333 -13 88c-15.333 26 -42 39 -80 39
c-33.333 0 -59 -11 -77 -33s-27 -53.333 -27 -94v-277h-76v276c0 40.667 -5 70 -15 88c-13.333 26.667 -38.333 40 -75 40c-33.333 0 -59.5 -11.333 -78.5 -34s-28.5 -54 -28.5 -94v-276h-76v461z" />
    <glyph glyph-name="n" unicode="n" horiz-adv-x="509" 
d="M76 461h75.998v-65c37.333 50.667 83 76 137 76c42.667 0 78.334 -12.667 107.001 -38c14.667 -14 24.834 -30.167 30.501 -48.5s8.5 -43.166 8.5 -74.499v-311h-76v294c0 37.333 -5.66699 63.666 -17 78.999c-14 20.667 -38 31 -72 31c-36 0 -65.333 -13 -88 -39
c-20 -22 -30 -50 -30 -84v-281h-76v461z" />
    <glyph glyph-name="o" unicode="o" horiz-adv-x="548" 
d="M275 472c68 0 123.833 -22.833 167.5 -68.5s65.5 -103.834 65.5 -174.501c0 -67.333 -22.667 -124.166 -68 -170.499s-101.333 -69.5 -168 -69.5c-68.667 0 -124.667 22.5 -168 67.5s-65 103.167 -65 174.5s21.833 129.333 65.5 174s100.5 67 170.5 67zM275 402
c-47.333 0 -85.499 -15.834 -114.499 -47.501s-43.5 -73.167 -43.5 -124.5s14.5 -92.666 43.5 -123.999s66.833 -47 113.5 -47c45.333 0 82.666 16 111.999 48s44 73 44 123c0 51.333 -14.167 92.833 -42.5 124.5s-65.833 47.5 -112.5 47.5z" />
    <glyph glyph-name="p" unicode="p" horiz-adv-x="576" 
d="M76 461h75.999v-84c22 34 45.833 58.333 71.5 73s57.834 22 96.501 22c64 0 116.167 -22.167 156.5 -66.5s60.5 -101.5 60.5 -171.5c0 -72.667 -20.167 -131.667 -60.5 -177s-92.5 -68 -156.5 -68c-35.333 0 -69 8 -101 24c-24 12 -46.333 31.667 -67 59v-288h-76v677z
M306.999 404c-46 0 -83.333 -16.666 -112 -49.999s-43 -77 -43 -131c0 -50.667 14 -91.334 42 -122.001s64.667 -46 110 -46s82 16.167 110 48.5s42 74.833 42 127.5c0 56.667 -14.667 99.667 -44 129c-28 29.333 -63 44 -105 44z" />
    <glyph glyph-name="q" unicode="q" horiz-adv-x="573" 
d="M421 461h75.998v-677h-76v293c-42 -58.667 -97.667 -88 -167 -88c-34 0 -66.167 7.5 -96.5 22.5s-55.166 35.5 -74.499 61.5c-29.333 40 -44 93 -44 159c0 72 20.333 130 61 174s94.334 66 161.001 66s120 -30 160 -90v79zM269.998 404
c-44.667 0 -81 -16.334 -109 -49.001s-42 -74.667 -42 -126s13.833 -93.166 41.5 -125.499s63.5 -48.5 107.5 -48.5c44.667 0 81 16 109 48s42 73.333 42 124c0 58.667 -15.667 103.667 -47 135c-28 28 -62 42 -102 42z" />
    <glyph glyph-name="r" unicode="r" horiz-adv-x="318" 
d="M76 461h76v-78c12 28 26 48.333 42 61c24 18.667 53 28 87 28h18v-77c-5.33301 0.666992 -12.333 1 -21 1c-42 0 -75 -17.667 -99 -53c-18 -26 -27 -62.333 -27 -109v-234h-76v461z" />
    <glyph glyph-name="s" unicode="s" horiz-adv-x="411" 
d="M365 335l-76.001 0.00195312v5c0 21.333 -8 38.333 -24 51s-37.333 19 -64 19c-24.667 0 -44.667 -6 -60 -18s-23 -27.667 -23 -47c0 -21.333 6.5 -37 19.5 -47s40.833 -20.667 83.5 -32c54 -14.667 91.333 -32.334 112 -53.001c24.667 -24.667 37 -54.667 37 -90
c0 -40 -15.167 -72.333 -45.5 -97s-69.833 -37 -118.5 -37c-106.667 0 -164 47.333 -172 142h75c5.33301 -53.333 37.666 -80 96.999 -80c26 0 46.833 6.16699 62.5 18.5s23.5 28.833 23.5 49.5c0 20 -7.66699 35.833 -23 47.5s-42.666 22.5 -81.999 32.5
c-50 13.333 -86.667 31.166 -110 53.499s-35 50.833 -35 85.5c0 40 14.833 72.333 44.5 97s68.834 37 117.501 37c49.333 0 88 -12 116 -36s43 -57.667 45 -101z" />
    <glyph glyph-name="t" unicode="t" horiz-adv-x="259" 
d="M157 394l0.000976562 -299.999c0 -10.667 2.33301 -18 7 -22s13.667 -6 27 -6h36v-66h-71c-26.667 0 -45.834 5.66699 -57.501 17s-17.5 29.666 -17.5 54.999v322h-64v67h64v145h76v-145h70v-67h-70z" />
    <glyph glyph-name="u" unicode="u" horiz-adv-x="485" 
d="M344 461l76.999 -0.000976562v-295c0 -32 -3.5 -57.667 -10.5 -77s-18.833 -36.666 -35.5 -51.999c-35.333 -32 -79.666 -48 -132.999 -48c-54 0 -98.333 16.333 -133 49c-30.667 30 -46 72.667 -46 128v295h76v-293c0 -32.667 9.5 -59.334 28.5 -80.001
s43.833 -31 74.5 -31c34.667 0 61.667 11.667 81 35c14 16.667 21 41.334 21 74.001v295z" />
    <glyph glyph-name="v" unicode="v" horiz-adv-x="435" 
d="M350 461h79l-174 -461h-80l-169 461h80l130 -352z" />
    <glyph glyph-name="w" unicode="w" horiz-adv-x="692" 
d="M608 461h78l-164 -461h-69l-106 350l-111 -350h-72l-158 461h78l118 -339l106 339h75l104 -339z" />
    <glyph glyph-name="x" unicode="x" horiz-adv-x="446" 
d="M223 167l-123 -167h-93l170 229l-173 232h96l123 -169l126 169h93l-174 -232l166 -229h-93z" />
    <glyph glyph-name="y" unicode="y" horiz-adv-x="438" 
d="M211 119l138 342h83l-275 -683h-83l96 236l-164 447h81z" />
    <glyph glyph-name="z" unicode="z" horiz-adv-x="401" 
d="M150 67h212v-67h-340l240 394h-214v67h339z" />
    <glyph glyph-name="braceleft" unicode="{" 
d="M273 514v-154.998c0 -30.667 -4 -54.334 -12 -71.001s-22.333 -30.667 -43 -42c20.667 -10.667 35 -24.667 43 -42s12 -42 12 -74v-151c0 -36.667 6.5 -61.5 19.5 -74.5s38.167 -20.167 75.5 -21.5v-70c-4 0.666992 -8.66699 1 -14 1l-27 1
c-34.667 0.666992 -60.834 5 -78.501 13s-31.5 21.667 -41.5 41c-10.667 20.667 -16 51.667 -16 93v159c0 28.667 -4.16699 50.167 -12.5 64.5s-23.166 24.5 -44.499 30.5v64c20.667 5.33301 35.334 15 44.001 29s13 34.667 13 62v174c0 46.667 10.667 80.667 32 102
c21.333 22 64.666 33 129.999 33h15v-74c-37.333 -0.666992 -62.5 -7.33398 -75.5 -20.001s-19.5 -36.667 -19.5 -72z" />
    <glyph glyph-name="bar" unicode="|" 
d="M208 667h83v-834h-83v834z" />
    <glyph glyph-name="braceright" unicode="}" 
d="M227 -22l0.00195312 156.002c0 31.333 4 55.333 12 72s22.333 30.667 43 42c-20.667 10.667 -35 24.667 -43 42s-12 41.666 -12 72.999v151c0 37.333 -6.5 62.5 -19.5 75.5s-38.167 19.833 -75.5 20.5v70h14c39.333 0 68.333 -2.5 87 -7.5s34 -14.167 46 -27.5
c20 -22.667 30 -60.667 30 -114v-158c0 -28.667 4.16699 -50.167 12.5 -64.5s23.166 -24.5 44.499 -30.5v-64c-20.667 -6 -35.334 -16 -44.001 -30s-13 -34.667 -13 -62v-173c0 -47.333 -10.667 -81.666 -32 -102.999c-12 -12.667 -27.5 -21.334 -46.5 -26.001
s-46.833 -7 -83.5 -7h-15v74c37.333 1.33301 62.5 8.16602 75.5 20.499s19.5 35.833 19.5 70.5z" />
    <glyph glyph-name="asciitilde" unicode="~" horiz-adv-x="667" 
d="M138 579l-44.001 35c35.333 75.333 81 113 137 113c25.333 0 63.666 -13 114.999 -39c43.333 -21.333 74 -32 92 -32c34 0 64.333 24.667 91 74l44 -35c-34 -75.333 -82 -113 -144 -113c-13.333 0 -27.166 2.66699 -41.499 8s-40.5 17.333 -78.5 36
c-35.333 17.333 -62.666 26 -81.999 26c-32 0 -61.667 -24.333 -89 -73z" />
    <glyph glyph-name="nbspace" unicode="&#xa0;" horiz-adv-x="300" 
 />
    <glyph glyph-name="exclamdown" unicode="&#xa1;" horiz-adv-x="257" 
d="M91 -203v505h77v-505h-77zM129 471c15.333 0 27.833 -4.83398 37.5 -14.501s14.5 -22.167 14.5 -37.5s-4.83301 -27.833 -14.5 -37.5s-22.167 -14.5 -37.5 -14.5s-27.833 5 -37.5 15s-14.5 22.667 -14.5 38c0 14.667 5 26.834 15 36.501s22.333 14.5 37 14.5z" />
    <glyph glyph-name="cent" unicode="&#xa2;" 
d="M297 501l0.00195312 -344.998c36.667 1.33301 70 17.333 100 48l46 -50c-38.667 -38 -87.334 -60 -146.001 -66v-84h-41v84c-66.667 11.333 -117.334 37 -152.001 77s-52 93 -52 159c0 43.333 8.33301 83.166 25 119.499s39.667 65.166 69 86.499c28 20 64.667 33 110 39
v79h41v-79c60.667 -3.33301 110 -27 148 -71l-48 -47c-30 30 -63.333 46.667 -100 50zM256.002 156.002v345c-86.667 -17.333 -130 -74.666 -130 -171.999c0 -47.333 11.167 -85.833 33.5 -115.5s54.5 -48.834 96.5 -57.501z" />
    <glyph glyph-name="sterling" unicode="&#xa3;" 
d="M221 362h147.998v-49h-114c26.667 -32 40 -62.667 40 -92c0 -34 -18.333 -70.667 -55 -110c16.667 -5.33301 40.334 -15.333 71.001 -30c25.333 -11.333 44.333 -17 57 -17c14.667 0 26.334 3.66699 35.001 11s16.334 19.666 23.001 36.999l39 -29
c-5.33301 -21.333 -13 -38.333 -23 -51c-22.667 -27.333 -51 -41 -85 -41c-22 0 -55.333 11.333 -100 34c-42.667 21.333 -71.334 32 -86.001 32c-15.333 0 -27.5 -5 -36.5 -15s-13.5 -24 -13.5 -42h-70c1.33301 36.667 12.333 66.5 33 89.5s47 34.5 79 34.5h6
c20.667 20.667 34.334 36.834 41.001 48.501s10 25.167 10 40.5c0 18 -4 34.333 -12 49s-22 31.667 -42 51h-112v49h70c-19.333 24.667 -32.666 45.667 -39.999 63s-11 38 -11 62c0 51.333 18.5 94.333 55.5 129s82.833 52 137.5 52c31.333 0 60.666 -6.5 87.999 -19.5
s49.333 -31.167 66 -54.5c17.333 -22.667 26.333 -54 27 -94h-74c0.666992 3.33301 1 7 1 11c0 24 -11 45.167 -33 63.5s-47.667 27.5 -77 27.5c-30.667 0 -56.834 -10.667 -78.501 -32s-32.5 -47 -32.5 -77c0 -20 5 -39.667 15 -59s27.667 -43.333 53 -72z" />
    <glyph glyph-name="currency" unicode="&#xa4;" horiz-adv-x="689" 
d="M66 109l91.998 93c-31.333 43.333 -47 90 -47 140c0 44 16 90.333 48 139l-95 94l45 45l95 -95c28.667 18.667 53 31.5 73 38.5s42.667 10.5 68 10.5s47.5 -3.5 66.5 -10.5s42.833 -19.833 71.5 -38.5l96 94l44 -44l-94 -94c32.667 -46 49 -93 49 -141
c0 -24.667 -3.33301 -46.667 -10 -66s-19 -43 -37 -71l94 -94l-45 -45l-93 94c-43.333 -32.667 -89.666 -49 -138.999 -49c-45.333 0 -93.666 16.333 -144.999 49l-93 -94zM346.998 504c-45.333 0 -83.666 -15.6689 -114.999 -47.002s-47 -69.666 -47 -114.999
c0 -44.667 15.667 -82.667 47 -114s68.666 -47 111.999 -47c44.667 0 82.5 15.667 113.5 47s46.5 69.333 46.5 114s-15.333 82.834 -46 114.501s-67.667 47.5 -111 47.5z" />
    <glyph glyph-name="yen" unicode="&#xa5;" 
d="M141 428l-117 229h88l140 -288l137 288h87l-116 -229h96v-51h-121l-44 -88v-7h145v-51h-145v-231h-79v231h-148v51h148v7l-45 88h-123v51h97z" />
    <glyph glyph-name="brokenbar" unicode="&#xa6;" 
d="M208 667h83v-336h-83v336zM208 153h83v-320h-83v320z" />
    <glyph glyph-name="section" unicode="&#xa7;" 
d="M420 534h-71.0029c-2.66699 25.333 -12.5 45.666 -29.5 60.999s-38.167 23 -63.5 23s-46.833 -8.16699 -64.5 -24.5s-26.5 -36.166 -26.5 -59.499c0 -24 9.33301 -44.333 28 -61c10 -10 19.167 -17 27.5 -21s32.5 -12.667 72.5 -26c100.667 -34 151 -95 151 -183
c0 -74 -36 -126.667 -108 -158c28.667 -20 48.834 -39.667 60.501 -59s17.5 -42.666 17.5 -69.999c0 -46.667 -16.167 -85.167 -48.5 -115.5s-73.833 -45.5 -124.5 -45.5c-52.667 0 -96.334 16.333 -131.001 49s-52 73.667 -52 123v6h71
c1.33301 -35.333 12.333 -63.5 33 -84.5s47.667 -31.5 81 -31.5c28.667 0 52.5 9.16699 71.5 27.5s28.5 41.166 28.5 68.499c0 26.667 -11 49 -33 67c-11.333 10 -22.5 17.167 -33.5 21.5s-33.5 11.166 -67.5 20.499c-102.667 28 -154 86.667 -154 176
c0 86 39.667 142.667 119 170c-52.667 26.667 -79 69.334 -79 128.001c0 41.333 14.833 75.833 44.5 103.5s66.834 41.5 111.501 41.5c30.667 0 58.834 -6 84.501 -18s45.834 -28.667 60.501 -50c14 -22 22 -48.333 24 -79zM249.997 363
c-34 0 -63.332 -11.832 -87.999 -35.499s-37 -51.834 -37 -84.501c0 -35.333 11.5 -64.333 34.5 -87s52.833 -34 89.5 -34s66.5 11.333 89.5 34s34.5 52 34.5 88c0 31.333 -12.333 59 -37 83s-53.334 36 -86.001 36z" />
    <glyph glyph-name="dieresis" unicode="&#xa8;" 
d="M150 640c13.333 0 24.5 -4.5 33.5 -13.5s13.5 -20.5 13.5 -34.5c0 -13.333 -4.5 -24.333 -13.5 -33s-20.167 -13 -33.5 -13s-24.5 4.5 -33.5 13.5s-13.5 20.167 -13.5 33.5s4.5 24.5 13.5 33.5s20.167 13.5 33.5 13.5zM350 640c13.333 0 24.5 -4.5 33.5 -13.5
s13.5 -20.5 13.5 -34.5c0 -13.333 -4.5 -24.333 -13.5 -33s-20.167 -13 -33.5 -13s-24.5 4.5 -33.5 13.5s-13.5 20.167 -13.5 33.5s4.5 24.5 13.5 33.5s20.167 13.5 33.5 13.5z" />
    <glyph glyph-name="copyright" unicode="&#xa9;" horiz-adv-x="782" 
d="M395 679c92.667 0 172.499 -34 239.499 -102s100.5 -149.333 100.5 -244c0 -95.333 -33.667 -176.666 -101 -243.999s-148.333 -101 -243 -101c-95.333 0 -176.666 33.667 -243.999 101s-101 148.666 -101 243.999c0 96.667 33.833 178.5 101.5 245.5
s150.167 100.5 247.5 100.5zM394.999 639c-85.333 0 -157.501 -29.667 -216.501 -89s-88.5 -131.666 -88.5 -216.999c0 -84 29.5 -155.833 88.5 -215.5s129.833 -89.5 212.5 -89.5s153.334 29.833 212.001 89.5s88 131.5 88 215.5c0 83.333 -29.167 155.166 -87.5 215.499
s-127.833 90.5 -208.5 90.5zM531.998 296h42.999c-4 -50 -22.667 -90.167 -56 -120.5s-75.333 -45.5 -126 -45.5c-57.333 0 -103.5 18.833 -138.5 56.5s-52.5 86.834 -52.5 147.501s18 110 54 148s82.667 57 140 57c46 0 85.333 -13 118 -39s50.667 -59 54 -99h-42
c-6.66699 28.667 -21.5 51.167 -44.5 67.5s-51.5 24.5 -85.5 24.5c-42 0 -75.833 -14.5 -101.5 -43.5s-38.5 -67.5 -38.5 -115.5s12.667 -86.333 38 -115s59 -43 101 -43c37.333 0 68.333 10.667 93 32s39.334 50.666 44.001 87.999z" />
    <glyph glyph-name="ordfeminine" unicode="&#xaa;" horiz-adv-x="375" 
d="M268 508l-0.00195312 37h55v-278h-55v44c-25.333 -33.333 -58.666 -50 -99.999 -50c-40 0 -73 13.5 -99 40.5s-39 61.5 -39 103.5c0 42.667 13.167 77.667 39.5 105s59.833 41 100.5 41s73.334 -14.333 98.001 -43zM176.998 504
c-26.667 0 -48.166 -9.16699 -64.499 -27.5s-24.5 -42.5 -24.5 -72.5c0 -27.333 8.5 -50.333 25.5 -69s37.833 -28 62.5 -28c25.333 0 47.166 10 65.499 30s27.5 44 27.5 72s-8.5 50.833 -25.5 68.5s-39.167 26.5 -66.5 26.5z" />
    <glyph glyph-name="guillemotleft" unicode="&#xab;" horiz-adv-x="415" 
d="M103 235l101 -164h-60l-101 164l101 171h60zM264 235l101 -164h-60l-100 164l100 171h60z" />
    <glyph glyph-name="logicalnot" unicode="&#xac;" 
d="M385 0v205h-352v73h433v-278h-81z" />
    <glyph glyph-name="sfthyphen" unicode="&#xad;" horiz-adv-x="207" 
d="M207 277v-69h-207v69h207z" />
    <glyph glyph-name="registered" unicode="&#xae;" horiz-adv-x="782" 
d="M395 679c92.667 0 172.499 -34 239.499 -102s100.5 -149.333 100.5 -244c0 -95.333 -33.667 -176.666 -101 -243.999s-148.333 -101 -243 -101c-95.333 0 -176.666 33.667 -243.999 101s-101 148.666 -101 243.999c0 96.667 33.833 178.5 101.5 245.5
s150.167 100.5 247.5 100.5zM394.999 639c-85.333 0 -157.501 -29.667 -216.501 -89s-88.5 -131.666 -88.5 -216.999c0 -84 29.5 -155.833 88.5 -215.5s129.833 -89.5 212.5 -89.5s153.334 29.833 212.001 89.5s88 131.5 88 215.5c0 83.333 -29.167 155.166 -87.5 215.499
s-127.833 90.5 -208.5 90.5zM242.998 527l165.002 0.00195312c45.333 0 79.833 -9.33301 103.5 -28s35.5 -45.334 35.5 -80.001c0 -46 -23.667 -77.667 -71 -95c25.333 -8.66699 42.333 -21.334 51 -38.001s13.667 -45.667 15 -87c1.33301 -32.667 4.66602 -54 9.99902 -64
h-51c-4.66699 8 -8.33398 32.333 -11.001 73c-1.33301 26 -3.83301 44.667 -7.5 56s-10.167 20 -19.5 26c-15.333 10.667 -40.333 16 -75 16h-92v-171h-53v392zM296 491.002v-151h95c68.667 0 103 25.333 103 76c0 50 -31.667 75 -95 75h-103z" />
    <glyph glyph-name="macron" unicode="&#xaf;" 
d="M386 624v-62h-272v62h272z" />
    <glyph glyph-name="degree" unicode="&#xb0;" 
d="M252 664c39.333 0 72.667 -13.999 100 -41.999s41 -62 41 -102c0 -38.667 -14 -71.834 -42 -99.501s-61.333 -41.5 -100 -41.5c-39.333 0 -73 14 -101 42s-42 61.667 -42 101s14 72.833 42 100.5s62 41.5 102 41.5zM249.001 626.001
c-28 0 -52.001 -10.165 -72.001 -30.498s-30 -44.833 -30 -73.5s10.167 -53.334 30.5 -74.001s44.833 -31 73.5 -31c28 0 52.167 10.167 72.5 30.5s30.5 44.166 30.5 71.499c0 30 -10.167 55.333 -30.5 76s-45.166 31 -74.499 31z" />
    <glyph glyph-name="plusminus" unicode="&#xb1;" 
d="M22 375h205v193h46v-193h205v-44h-205v-189h-46v189h-205v44zM22 97h456v-44h-456v44z" />
    <glyph glyph-name="twosuperior" unicode="&#xb2;" horiz-adv-x="328" 
d="M129 313h141.999v-51h-244l148 202c20.667 28.667 34.334 49 41.001 61s10 23.667 10 35c0 16 -6.16699 29.167 -18.5 39.5s-28.166 15.5 -47.499 15.5c-22 0 -37.833 -5.83301 -47.5 -17.5s-14.834 -30.5 -15.501 -56.5h-55c3.33301 82.667 44 124 122 124
c34.667 0 63.167 -9.5 85.5 -28.5s33.5 -43.167 33.5 -72.5c0 -32 -16 -68.667 -48 -110z" />
    <glyph glyph-name="threesuperior" unicode="&#xb3;" horiz-adv-x="328" 
d="M189 607h-140.001v50h248l-123 -147c34.667 -0.666992 63.334 -12.667 86.001 -36s34 -52 34 -86c0 -38 -13.333 -69.5 -40 -94.5s-60.334 -37.5 -101.001 -37.5c-34.667 0 -63.5 8.66699 -86.5 26s-38.167 42.333 -45.5 75l52 9c11.333 -39.333 37 -59 77 -59
c24.667 0 45.334 7.5 62.001 22.5s25 33.5 25 55.5c0 22.667 -8.16699 41 -24.5 55s-37.5 21 -63.5 21c-18 0 -35 -4.66699 -51 -14l-25 21z" />
    <glyph glyph-name="acute" unicode="&#xb4;" 
d="M294 660h89l-117 -132h-55z" />
    <glyph glyph-name="paragraph" unicode="&#xb6;" 
d="M233 -105l-0.000976562 413h-16c-53.333 0 -96.666 16.5 -129.999 49.5s-50 75.833 -50 128.5c0 32.667 7.66699 63 23 91s36 49.667 62 65c30 16.667 69.667 25 119 25h180v-772h-53v735h-81v-735h-54z" />
    <glyph glyph-name="middot" unicode="&#xb7;" horiz-adv-x="231" 
d="M115 295c15.333 0 27.833 -4.99902 37.5 -14.999s14.5 -22.667 14.5 -38c0 -14.667 -5 -26.834 -15 -36.501s-22.333 -14.5 -37 -14.5c-15.333 0 -27.833 4.83301 -37.5 14.5s-14.5 22.167 -14.5 37.5s4.83301 27.833 14.5 37.5s22.167 14.5 37.5 14.5z" />
    <glyph glyph-name="cedilla" unicode="&#xb8;" 
d="M201 -213l-32 34c49.333 28.667 82.333 70.667 99 126l63 -24c-15.333 -32 -33 -58.5 -53 -79.5s-45.667 -39.833 -77 -56.5z" />
    <glyph glyph-name="onesuperior" unicode="&#xb9;" horiz-adv-x="328" 
d="M166 581l-92 -57v53l149 92v-406h-57v318z" />
    <glyph glyph-name="ordmasculine" unicode="&#xba;" horiz-adv-x="357" 
d="M179 552c43.333 0 78.999 -13.832 106.999 -41.499s42 -62.834 42 -105.501c0 -40.667 -14.5 -75 -43.5 -103s-64.5 -42 -106.5 -42c-44 0 -79.833 13.667 -107.5 41s-41.5 62.333 -41.5 105c0 43.333 13.833 78.5 41.5 105.5s63.834 40.5 108.501 40.5zM178.999 504.001
c-28 0 -50.666 -9 -67.999 -27s-26 -41.667 -26 -71s8.5 -53 25.5 -71s39.833 -27 68.5 -27c27.333 0 49.666 9.16699 66.999 27.5s26 41.833 26 70.5c0 29.333 -8.5 53 -25.5 71s-39.5 27 -67.5 27z" />
    <glyph glyph-name="guillemotright" unicode="&#xbb;" horiz-adv-x="415" 
d="M313 247l-101 164h60l100 -164l-100 -171h-60zM151 247l-101 164h60l101 -164l-101 -171h-60z" />
    <glyph glyph-name="onequarter" unicode="&#xbc;" horiz-adv-x="780" 
d="M165 581l-91 -57v53l148 92v-406h-57v318zM635 648l-457 -661l-33 23l457 660zM646 88h-165v41l221 282v-273h49v-50h-49v-88h-56v88zM647 137v138l-106 -138h106z" />
    <glyph glyph-name="onehalf" unicode="&#xbd;" horiz-adv-x="780" 
d="M165 581l-91 -57v53l148 92v-406h-57v318zM635 648l-457 -661l-33 23l457 660zM582 51h142.003v-51h-244l148 201c21.333 28 35.166 48.167 41.499 60.5s9.5 24.166 9.5 35.499c0 16 -6 29 -18 39s-27.667 15 -47 15c-22.667 0 -38.834 -5.66699 -48.501 -17
s-14.834 -30 -15.501 -56h-55c3.33301 82 44 123 122 123c34.667 0 63.167 -9.5 85.5 -28.5s33.5 -43.167 33.5 -72.5c0 -31.333 -16 -67.666 -48 -108.999z" />
    <glyph glyph-name="threequarters" unicode="&#xbe;" horiz-adv-x="780" 
d="M189 607h-140.001v50h248l-123 -147c34.667 -0.666992 63.334 -12.667 86.001 -36s34 -52 34 -86c0 -38 -13.333 -69.5 -40 -94.5s-60.334 -37.5 -101.001 -37.5c-34.667 0 -63.5 8.66699 -86.5 26s-38.167 42.333 -45.5 75l52 9c11.333 -39.333 37 -59 77 -59
c24.667 0 45.334 7.5 62.001 22.5s25 33.5 25 55.5c0 22.667 -8.16699 41 -24.5 55s-37.5 21 -63.5 21c-18 0 -35 -4.66699 -51 -14l-25 21zM634.999 648l-458 -661l-33 23l458 660zM645.999 88h-166v41l222 282v-273h48v-50h-48v-88h-56v88zM646.999 137v138l-106 -138h106
z" />
    <glyph glyph-name="questiondown" unicode="&#xbf;" horiz-adv-x="426" 
d="M207 298l73.999 -0.00390625c0.666992 -70 -3.33301 -116.167 -12 -138.5s-33 -49.166 -73 -80.499c-27.333 -21.333 -46.166 -40.166 -56.499 -56.499s-15.5 -35.833 -15.5 -58.5c0 -30 9.33301 -55 28 -75s42.334 -30 71.001 -30c27.333 0 50.166 8.66699 68.499 26
s27.5 39.333 27.5 66v13h73c-0.666992 -54.667 -16 -97.5 -46 -128.5s-70.667 -46.5 -122 -46.5s-93.833 16.333 -127.5 49s-50.5 74.334 -50.5 125.001c0 33.333 7.66699 62.833 23 88.5s41 51.834 77 78.501c27.333 20.667 44.333 37.667 51 51s10 37 10 71v46z
M241.999 470.996c14.667 0 27 -4.83398 37 -14.501s15 -22.167 15 -37.5s-5 -27.833 -15 -37.5s-22.333 -14.5 -37 -14.5c-15.333 0 -27.833 5 -37.5 15s-14.5 22.667 -14.5 38c0 14.667 5 26.834 15 36.501s22.333 14.5 37 14.5z" />
    <glyph glyph-name="Agrave" unicode="&#xc0;" horiz-adv-x="606" 
d="M452 154h-299l-61 -154h-87l251 667h100l245 -667h-94zM426 226l-122 335l-126 -335h248zM258 850l88 -131h-60l-120 131h92z" />
    <glyph glyph-name="Aacute" unicode="&#xc1;" horiz-adv-x="606" 
d="M452 154h-299l-61 -154h-87l251 667h100l245 -667h-94zM426 226l-122 335l-126 -335h248zM348 850h91l-120 -131h-60z" />
    <glyph glyph-name="Acircumflex" unicode="&#xc2;" horiz-adv-x="606" 
d="M452 154h-299l-61 -154h-87l251 667h100l245 -667h-94zM426 226l-122 335l-126 -335h248zM304 802l-76 -83h-66l109 133h69l104 -133h-65z" />
    <glyph glyph-name="Atilde" unicode="&#xc3;" horiz-adv-x="606" 
d="M452 154h-299l-61 -154h-87l251 667h100l245 -667h-94zM426 226l-122 335l-126 -335h248zM415 834l53.999 -21c-16 -30 -31.5 -51.333 -46.5 -64s-32.167 -19 -51.5 -19c-16 0 -39.667 8 -71 24c-22.667 11.333 -39 17 -49 17c-20 0 -35.667 -14 -47 -42l-54 16
c14.667 32.667 29.334 55.667 44.001 69s31.667 20 51 20c16 0 41.667 -9 77 -27c23.333 -11.333 38.333 -17 45 -17c18.667 0 34.667 14.667 48 44z" />
    <glyph glyph-name="Adieresis" unicode="&#xc4;" horiz-adv-x="606" 
d="M452 154h-299l-61 -154h-87l251 667h100l245 -667h-94zM426 226l-122 335l-126 -335h248zM201 838c14.667 0 26.833 -5.00195 36.5 -15.002s14.5 -22.333 14.5 -37c0 -14 -5 -25.833 -15 -35.5s-22 -14.5 -36 -14.5c-14.667 0 -26.834 4.83301 -36.501 14.5
s-14.5 21.834 -14.5 36.501s4.83301 26.834 14.5 36.501s21.834 14.5 36.501 14.5zM404.999 837.998c14.667 0 26.833 -5.00195 36.5 -15.002s14.5 -22.333 14.5 -37c0 -14 -5 -25.833 -15 -35.5s-22 -14.5 -36 -14.5c-14.667 0 -26.834 4.83301 -36.501 14.5
s-14.5 21.834 -14.5 36.501s4.83301 26.834 14.5 36.501s21.834 14.5 36.501 14.5z" />
    <glyph glyph-name="Aring" unicode="&#xc5;" horiz-adv-x="606" 
d="M452 154h-299l-61 -154h-87l251 667h100l245 -667h-94zM426 226l-122 335l-126 -335h248zM304 868c22.667 0 41.499 -7.66895 56.499 -23.002s22.5 -34.666 22.5 -57.999c0 -21.333 -7.83301 -39.666 -23.5 -54.999s-34.5 -23 -56.5 -23
c-22.667 0 -41.667 7.66699 -57 23s-23 34.333 -23 57c0 22 7.83301 40.667 23.5 56s34.834 23 57.501 23zM302.999 835.998c-13.333 0 -24.665 -4.49902 -33.998 -13.499s-14 -20.5 -14 -34.5c0 -13.333 4.66699 -24.5 14 -33.5s20.666 -13.5 33.999 -13.5
s24.666 4.5 33.999 13.5s14 20.167 14 33.5s-4.5 24.666 -13.5 33.999s-20.5 14 -34.5 14z" />
    <glyph glyph-name="AE" unicode="&#xc6;" horiz-adv-x="813" 
d="M504 300v-228h260v-72h-344v167h-242l-93 -167h-89l373 667h395v-72h-260v-223h260v-72h-260zM420 237v369l-204 -369h204z" />
    <glyph glyph-name="Ccedilla" unicode="&#xc7;" horiz-adv-x="630" 
d="M550 157l56.001 -56.001c-33.333 -39.333 -69.5 -68 -108.5 -86s-84.167 -27 -135.5 -27c-92.667 0 -168.834 32.333 -228.501 97s-89.5 147.334 -89.5 248.001c0 100 30.167 182.667 90.5 248s136.5 98 228.5 98c50 0 94.167 -9 132.5 -27s75.833 -47 112.5 -87l-58 -54
c-32 33.333 -62 56.833 -90 70.5s-59.667 20.5 -95 20.5c-68 0 -124.167 -25.333 -168.5 -76s-66.5 -115 -66.5 -193c0 -77.333 22.5 -141.333 67.5 -192s102.167 -76 171.5 -76c70.667 0 131 30.667 181 92zM285.001 -209.001l-43 34c48 30 78 69.333 90 118l78 -27
c-20 -48 -61.667 -89.667 -125 -125z" />
    <glyph glyph-name="Egrave" unicode="&#xc8;" horiz-adv-x="473" 
d="M159 595v-223h263v-72h-263v-228h263v-72h-347v667h347v-72h-263zM192 850l88 -131h-60l-120 131h92z" />
    <glyph glyph-name="Eacute" unicode="&#xc9;" horiz-adv-x="473" 
d="M159 595v-223h263v-72h-263v-228h263v-72h-347v667h347v-72h-263zM282 850h91l-120 -131h-60z" />
    <glyph glyph-name="Ecircumflex" unicode="&#xca;" horiz-adv-x="473" 
d="M159 595v-223h263v-72h-263v-228h263v-72h-347v667h347v-72h-263zM237 802l-76 -83h-66l109 133h69l104 -133h-65z" />
    <glyph glyph-name="Edieresis" unicode="&#xcb;" horiz-adv-x="473" 
d="M159 595v-223h263v-72h-263v-228h263v-72h-347v667h347v-72h-263zM134 838c14.667 0 26.833 -5.00195 36.5 -15.002s14.5 -22.333 14.5 -37c0 -14 -5 -25.833 -15 -35.5s-22 -14.5 -36 -14.5c-14.667 0 -26.834 4.83301 -36.501 14.5s-14.5 21.834 -14.5 36.501
s4.83301 26.834 14.5 36.501s21.834 14.5 36.501 14.5zM337.999 837.998c14.667 0 26.833 -5.00195 36.5 -15.002s14.5 -22.333 14.5 -37c0 -14 -5 -25.833 -15 -35.5s-22 -14.5 -36 -14.5c-14.667 0 -26.834 4.83301 -36.501 14.5s-14.5 21.834 -14.5 36.501
s4.83301 26.834 14.5 36.501s21.834 14.5 36.501 14.5z" />
    <glyph glyph-name="Igrave" unicode="&#xcc;" horiz-adv-x="250" 
d="M167 667v-667h-84v667h84zM80 850l88 -131h-60l-120 131h92z" />
    <glyph glyph-name="Iacute" unicode="&#xcd;" horiz-adv-x="250" 
d="M167 667v-667h-84v667h84zM171 850h91l-120 -131h-60z" />
    <glyph glyph-name="Icircumflex" unicode="&#xce;" horiz-adv-x="250" 
d="M167 667v-667h-84v667h84zM126 802l-76 -83h-66l109 133h69l104 -133h-65z" />
    <glyph glyph-name="Idieresis" unicode="&#xcf;" horiz-adv-x="250" 
d="M167 667v-667h-84v667h84zM51 838c14.667 0 26.833 -5.00195 36.5 -15.002s14.5 -22.333 14.5 -37c0 -14 -5 -25.833 -15 -35.5s-22 -14.5 -36 -14.5c-14.667 0 -26.834 4.83301 -36.501 14.5s-14.5 21.834 -14.5 36.501s4.83301 26.834 14.5 36.501
s21.834 14.5 36.501 14.5zM198.999 837.998c14.667 0 26.833 -5.00195 36.5 -15.002s14.5 -22.333 14.5 -37c0 -14 -5 -25.833 -15 -35.5s-22 -14.5 -36 -14.5c-14.667 0 -26.834 4.83301 -36.501 14.5s-14.5 21.834 -14.5 36.501s4.83301 26.834 14.5 36.501
s21.834 14.5 36.501 14.5z" />
    <glyph glyph-name="Eth" unicode="&#xd0;" horiz-adv-x="626" 
d="M83 372l-0.000976562 294.999h177c100.667 0 179.5 -28.667 236.5 -86s85.5 -136.666 85.5 -237.999c0 -115.333 -35 -204 -105 -266c-57.333 -51.333 -134.666 -77 -231.999 -77h-162v304h-75v68h75zM166.999 371.999h162.999v-68h-163v-232h30
c56.667 0 99.834 3.5 129.501 10.5s56.167 20.167 79.5 39.5c60 46.667 90 120 90 220c0 81.333 -20.667 144 -62 188s-100 66 -176 66h-91v-224z" />
    <glyph glyph-name="Ntilde" unicode="&#xd1;" horiz-adv-x="683" 
d="M167 510v-510h-84v667h77l356 -502v502h84v-667h-74zM453 834l53.999 -21c-16 -30 -31.5 -51.333 -46.5 -64s-32.167 -19 -51.5 -19c-16 0 -39.667 8 -71 24c-22.667 11.333 -39 17 -49 17c-20 0 -35.667 -14 -47 -42l-54 16c14.667 32.667 29.334 55.667 44.001 69
s31.667 20 51 20c16 0 41.667 -9 77 -27c23.333 -11.333 38.333 -17 45 -17c18.667 0 34.667 14.667 48 44z" />
    <glyph glyph-name="Ograve" unicode="&#xd2;" horiz-adv-x="742" 
d="M374 679c48.667 0 95.3301 -10.999 139.997 -32.999s82.334 -52.667 113.001 -92c47.333 -58.667 71 -134.334 71 -227.001c0 -112.667 -41 -201.667 -123 -267c-59.333 -48 -127 -72 -203 -72c-51.333 0 -100.666 12 -147.999 36s-86.333 57 -117 99
c-42 57.333 -63 126.333 -63 207c0 99.333 31.333 182.333 94 249s141.334 100 236.001 100zM371.996 601.001c-69.333 0 -126.999 -25.501 -172.999 -76.501s-69 -114.833 -69 -191.5c0 -77.333 22.667 -141.333 68 -192s102.666 -76 171.999 -76
c35.333 0 69.333 7.83301 102 23.5s60 36.834 82 63.501c17.333 20.667 31.333 47.167 42 79.5s16 64.5 16 96.5c0 91.333 -27.333 161.333 -82 210c-46 42 -98.667 63 -158 63zM325.997 850l88 -131h-60l-120 131h92z" />
    <glyph glyph-name="Oacute" unicode="&#xd3;" horiz-adv-x="742" 
d="M374 679c48.667 0 95.3301 -10.999 139.997 -32.999s82.334 -52.667 113.001 -92c47.333 -58.667 71 -134.334 71 -227.001c0 -112.667 -41 -201.667 -123 -267c-59.333 -48 -127 -72 -203 -72c-51.333 0 -100.666 12 -147.999 36s-86.333 57 -117 99
c-42 57.333 -63 126.333 -63 207c0 99.333 31.333 182.333 94 249s141.334 100 236.001 100zM371.996 601.001c-69.333 0 -126.999 -25.501 -172.999 -76.501s-69 -114.833 -69 -191.5c0 -77.333 22.667 -141.333 68 -192s102.666 -76 171.999 -76
c35.333 0 69.333 7.83301 102 23.5s60 36.834 82 63.501c17.333 20.667 31.333 47.167 42 79.5s16 64.5 16 96.5c0 91.333 -27.333 161.333 -82 210c-46 42 -98.667 63 -158 63zM416.997 850h91l-120 -131h-60z" />
    <glyph glyph-name="Ocircumflex" unicode="&#xd4;" horiz-adv-x="742" 
d="M374 679c48.667 0 95.3301 -10.999 139.997 -32.999s82.334 -52.667 113.001 -92c47.333 -58.667 71 -134.334 71 -227.001c0 -112.667 -41 -201.667 -123 -267c-59.333 -48 -127 -72 -203 -72c-51.333 0 -100.666 12 -147.999 36s-86.333 57 -117 99
c-42 57.333 -63 126.333 -63 207c0 99.333 31.333 182.333 94 249s141.334 100 236.001 100zM371.996 601.001c-69.333 0 -126.999 -25.501 -172.999 -76.501s-69 -114.833 -69 -191.5c0 -77.333 22.667 -141.333 68 -192s102.666 -76 171.999 -76
c35.333 0 69.333 7.83301 102 23.5s60 36.834 82 63.501c17.333 20.667 31.333 47.167 42 79.5s16 64.5 16 96.5c0 91.333 -27.333 161.333 -82 210c-46 42 -98.667 63 -158 63zM371.997 802l-76 -83h-66l109 133h69l104 -133h-65z" />
    <glyph glyph-name="Otilde" unicode="&#xd5;" horiz-adv-x="742" 
d="M374 679c48.667 0 95.3301 -10.999 139.997 -32.999s82.334 -52.667 113.001 -92c47.333 -58.667 71 -134.334 71 -227.001c0 -112.667 -41 -201.667 -123 -267c-59.333 -48 -127 -72 -203 -72c-51.333 0 -100.666 12 -147.999 36s-86.333 57 -117 99
c-42 57.333 -63 126.333 -63 207c0 99.333 31.333 182.333 94 249s141.334 100 236.001 100zM371.996 601.001c-69.333 0 -126.999 -25.501 -172.999 -76.501s-69 -114.833 -69 -191.5c0 -77.333 22.667 -141.333 68 -192s102.666 -76 171.999 -76
c35.333 0 69.333 7.83301 102 23.5s60 36.834 82 63.501c17.333 20.667 31.333 47.167 42 79.5s16 64.5 16 96.5c0 91.333 -27.333 161.333 -82 210c-46 42 -98.667 63 -158 63zM482.997 834l53.999 -21c-16 -30 -31.5 -51.333 -46.5 -64s-32.167 -19 -51.5 -19
c-16 0 -39.667 8 -71 24c-22.667 11.333 -39 17 -49 17c-20 0 -35.667 -14 -47 -42l-54 16c14.667 32.667 29.334 55.667 44.001 69s31.667 20 51 20c16 0 41.667 -9 77 -27c23.333 -11.333 38.333 -17 45 -17c18.667 0 34.667 14.667 48 44z" />
    <glyph glyph-name="Odieresis" unicode="&#xd6;" horiz-adv-x="742" 
d="M374 679c48.667 0 95.3301 -10.999 139.997 -32.999s82.334 -52.667 113.001 -92c47.333 -58.667 71 -134.334 71 -227.001c0 -112.667 -41 -201.667 -123 -267c-59.333 -48 -127 -72 -203 -72c-51.333 0 -100.666 12 -147.999 36s-86.333 57 -117 99
c-42 57.333 -63 126.333 -63 207c0 99.333 31.333 182.333 94 249s141.334 100 236.001 100zM371.996 601.001c-69.333 0 -126.999 -25.501 -172.999 -76.501s-69 -114.833 -69 -191.5c0 -77.333 22.667 -141.333 68 -192s102.666 -76 171.999 -76
c35.333 0 69.333 7.83301 102 23.5s60 36.834 82 63.501c17.333 20.667 31.333 47.167 42 79.5s16 64.5 16 96.5c0 91.333 -27.333 161.333 -82 210c-46 42 -98.667 63 -158 63zM268.997 838c14.667 0 26.833 -5.00195 36.5 -15.002s14.5 -22.333 14.5 -37
c0 -14 -5 -25.833 -15 -35.5s-22 -14.5 -36 -14.5c-14.667 0 -26.834 4.83301 -36.501 14.5s-14.5 21.834 -14.5 36.501s4.83301 26.834 14.5 36.501s21.834 14.5 36.501 14.5zM472.996 837.998c14.667 0 26.833 -5.00195 36.5 -15.002s14.5 -22.333 14.5 -37
c0 -14 -5 -25.833 -15 -35.5s-22 -14.5 -36 -14.5c-14.667 0 -26.834 4.83301 -36.501 14.5s-14.5 21.834 -14.5 36.501s4.83301 26.834 14.5 36.501s21.834 14.5 36.501 14.5z" />
    <glyph glyph-name="multiply" unicode="&#xd7;" 
d="M92 531l157 -158l158 159l32 -32l-158 -158l158 -158l-31 -31l-158 158l-158 -159l-32 32l159 158l-158 158z" />
    <glyph glyph-name="Oslash" unicode="&#xd8;" horiz-adv-x="740" 
d="M152 74l-75 -79.001l-27 26l75 80c-29.333 36.667 -50.166 72.167 -62.499 106.5s-18.5 74.833 -18.5 121.5c0 110.667 35.333 198.334 106 263.001c63.333 58 136.666 87 219.999 87c80 0 153.333 -28.667 220 -86l70 76l28 -27l-71 -76
c29.333 -40 49.833 -77.167 61.5 -111.5s17.5 -73.833 17.5 -118.5c0 -100 -31.333 -183 -94 -249s-141.667 -99 -237 -99c-40.667 0 -77.5 6.66699 -110.5 20s-67.167 35.333 -102.5 66zM559 505.999l-350.999 -376c48 -43.333 101 -65 159 -65
c71.333 0 129.666 25.5 174.999 76.5s68 116.167 68 195.5c0 62 -17 118.333 -51 169zM182.001 159.999l351 376c-51.333 44 -105 66 -161 66c-70 0 -127.833 -25.333 -173.5 -76s-68.5 -115 -68.5 -193c0 -65.333 17.333 -123 52 -173z" />
    <glyph glyph-name="Ugrave" unicode="&#xd9;" horiz-adv-x="636" 
d="M155 667l0.00488281 -397.001c0 -42.667 3.33301 -76 10 -100s18 -44 34 -60c31.333 -30 70.666 -45 117.999 -45s86.666 16.333 117.999 49c18 17.333 30 36.833 36 58.5s9 54.834 9 99.501v395h86v-395c0 -50 -4.5 -90.667 -13.5 -122s-24.167 -59 -45.5 -83
c-46.667 -52.667 -109.334 -79 -188.001 -79c-82.667 0 -147.334 28 -194.001 84c-20.667 23.333 -34.834 49.5 -42.501 78.5s-11.5 69.5 -11.5 121.5v395h84zM274.005 849.999l88 -131h-60l-120 131h92z" />
    <glyph glyph-name="Uacute" unicode="&#xda;" horiz-adv-x="636" 
d="M155 667l0.00488281 -397.001c0 -42.667 3.33301 -76 10 -100s18 -44 34 -60c31.333 -30 70.666 -45 117.999 -45s86.666 16.333 117.999 49c18 17.333 30 36.833 36 58.5s9 54.834 9 99.501v395h86v-395c0 -50 -4.5 -90.667 -13.5 -122s-24.167 -59 -45.5 -83
c-46.667 -52.667 -109.334 -79 -188.001 -79c-82.667 0 -147.334 28 -194.001 84c-20.667 23.333 -34.834 49.5 -42.501 78.5s-11.5 69.5 -11.5 121.5v395h84zM364.005 849.999h91l-120 -131h-60z" />
    <glyph glyph-name="Ucircumflex" unicode="&#xdb;" horiz-adv-x="636" 
d="M155 667l0.00488281 -397.001c0 -42.667 3.33301 -76 10 -100s18 -44 34 -60c31.333 -30 70.666 -45 117.999 -45s86.666 16.333 117.999 49c18 17.333 30 36.833 36 58.5s9 54.834 9 99.501v395h86v-395c0 -50 -4.5 -90.667 -13.5 -122s-24.167 -59 -45.5 -83
c-46.667 -52.667 -109.334 -79 -188.001 -79c-82.667 0 -147.334 28 -194.001 84c-20.667 23.333 -34.834 49.5 -42.501 78.5s-11.5 69.5 -11.5 121.5v395h84zM320.005 801.999l-76 -83h-66l109 133h69l104 -133h-65z" />
    <glyph glyph-name="Udieresis" unicode="&#xdc;" horiz-adv-x="636" 
d="M155 667l0.00488281 -397.001c0 -42.667 3.33301 -76 10 -100s18 -44 34 -60c31.333 -30 70.666 -45 117.999 -45s86.666 16.333 117.999 49c18 17.333 30 36.833 36 58.5s9 54.834 9 99.501v395h86v-395c0 -50 -4.5 -90.667 -13.5 -122s-24.167 -59 -45.5 -83
c-46.667 -52.667 -109.334 -79 -188.001 -79c-82.667 0 -147.334 28 -194.001 84c-20.667 23.333 -34.834 49.5 -42.501 78.5s-11.5 69.5 -11.5 121.5v395h84zM216.005 837.999c14.667 0 26.833 -5.00195 36.5 -15.002s14.5 -22.333 14.5 -37c0 -14 -5 -25.833 -15 -35.5
s-22 -14.5 -36 -14.5c-14.667 0 -26.834 4.83301 -36.501 14.5s-14.5 21.834 -14.5 36.501s4.83301 26.834 14.5 36.501s21.834 14.5 36.501 14.5zM420.004 837.997c14.667 0 26.833 -5.00195 36.5 -15.002s14.5 -22.333 14.5 -37c0 -14 -5 -25.833 -15 -35.5
s-22 -14.5 -36 -14.5c-14.667 0 -26.834 4.83301 -36.501 14.5s-14.5 21.834 -14.5 36.501s4.83301 26.834 14.5 36.501s21.834 14.5 36.501 14.5z" />
    <glyph glyph-name="Yacute" unicode="&#xdd;" horiz-adv-x="529" 
d="M308 294v-294h-84v294l-230 373h99l172 -286l170 286h100zM310 850h91l-120 -131h-60z" />
    <glyph glyph-name="Thorn" unicode="&#xde;" horiz-adv-x="531" 
d="M162 171v-171h-84v667h84v-84h94c79.333 0 140 -17.5 182 -52.5s63 -85.833 63 -152.5c0 -37.333 -7.83301 -71.333 -23.5 -102s-37.5 -54.667 -65.5 -72c-34 -22 -83 -33 -147 -33h-103zM162 243l87 -0.00292969c34.667 0 62.334 4 83.001 12
c25.333 9.33301 45.666 24.833 60.999 46.5s23 46.834 23 75.501s-7.5 53.834 -22.5 75.501s-35.833 36.834 -62.5 45.501c-25.333 8.66699 -56.333 13 -93 13h-76v-268z" />
    <glyph glyph-name="germandbls" unicode="&#xdf;" horiz-adv-x="495" 
d="M82 394l-52.999 0.000976562v67h53v57c0 48 14.667 85.5 44 112.5s70.333 40.5 123 40.5c50 0 90.333 -13.667 121 -41s46 -63.333 46 -108c0 -34 -9.33301 -63.667 -28 -89c-10.667 -15.333 -31.334 -30.333 -62.001 -45c87.333 -21.333 131 -82 131 -182
c0 -64.667 -16.5 -116.5 -49.5 -155.5s-76.5 -58.5 -130.5 -58.5c-28.667 0 -54.667 6.33301 -78 19l20 62c22 -6.66699 39.667 -10 53 -10c32.667 0 59 13 79 39s30 60 30 102c0 90 -45 136.333 -135 139v73c26.667 3.33301 45.667 9.66602 57 18.999
c24 17.333 36 43.333 36 78c0 26 -8.5 47.333 -25.5 64s-38.167 25 -63.5 25c-32.667 0 -57.667 -10.333 -75 -31c-11.333 -14 -17 -35.667 -17 -65v-506h-76v394z" />
    <glyph glyph-name="agrave" unicode="&#xe0;" horiz-adv-x="577" 
d="M424 385l0.00195312 75.999h76v-461h-76v89c-44.667 -66.667 -100.667 -100 -168 -100c-63.333 0 -115.333 22.5 -156 67.5s-61 102.5 -61 172.5c0 70.667 20.667 128.834 62 174.501s93.666 68.5 156.999 68.5c67.333 0 122.666 -29 165.999 -87zM269.002 403.999
c-50.667 0 -89.333 -19.999 -116 -59.999c-22.667 -32.667 -34 -71.667 -34 -117c0 -48.667 14.167 -89.5 42.5 -122.5s63.5 -49.5 105.5 -49.5c43.333 0 80.5 17.667 111.5 53s46.5 77.666 46.5 126.999c0 50 -14.5 90.667 -43.5 122s-66.5 47 -112.5 47zM245.003 660
l82 -132h-54l-118 132h90z" />
    <glyph glyph-name="aacute" unicode="&#xe1;" horiz-adv-x="577" 
d="M424 385l0.00195312 75.999h76v-461h-76v89c-44.667 -66.667 -100.667 -100 -168 -100c-63.333 0 -115.333 22.5 -156 67.5s-61 102.5 -61 172.5c0 70.667 20.667 128.834 62 174.501s93.666 68.5 156.999 68.5c67.333 0 122.666 -29 165.999 -87zM269.002 403.999
c-50.667 0 -89.333 -19.999 -116 -59.999c-22.667 -32.667 -34 -71.667 -34 -117c0 -48.667 14.167 -89.5 42.5 -122.5s63.5 -49.5 105.5 -49.5c43.333 0 80.5 17.667 111.5 53s46.5 77.666 46.5 126.999c0 50 -14.5 90.667 -43.5 122s-66.5 47 -112.5 47zM332.003 660h89
l-117 -132h-55z" />
    <glyph glyph-name="acircumflex" unicode="&#xe2;" horiz-adv-x="577" 
d="M424 385l0.00195312 75.999h76v-461h-76v89c-44.667 -66.667 -100.667 -100 -168 -100c-63.333 0 -115.333 22.5 -156 67.5s-61 102.5 -61 172.5c0 70.667 20.667 128.834 62 174.501s93.666 68.5 156.999 68.5c67.333 0 122.666 -29 165.999 -87zM269.002 403.999
c-50.667 0 -89.333 -19.999 -116 -59.999c-22.667 -32.667 -34 -71.667 -34 -117c0 -48.667 14.167 -89.5 42.5 -122.5s63.5 -49.5 105.5 -49.5c43.333 0 80.5 17.667 111.5 53s46.5 77.666 46.5 126.999c0 50 -14.5 90.667 -43.5 122s-66.5 47 -112.5 47zM288.003 612
l-73 -84h-65l104 133h72l101 -133h-66z" />
    <glyph glyph-name="atilde" unicode="&#xe3;" horiz-adv-x="577" 
d="M424 385l0.00195312 75.999h76v-461h-76v89c-44.667 -66.667 -100.667 -100 -168 -100c-63.333 0 -115.333 22.5 -156 67.5s-61 102.5 -61 172.5c0 70.667 20.667 128.834 62 174.501s93.666 68.5 156.999 68.5c67.333 0 122.666 -29 165.999 -87zM269.002 403.999
c-50.667 0 -89.333 -19.999 -116 -59.999c-22.667 -32.667 -34 -71.667 -34 -117c0 -48.667 14.167 -89.5 42.5 -122.5s63.5 -49.5 105.5 -49.5c43.333 0 80.5 17.667 111.5 53s46.5 77.666 46.5 126.999c0 50 -14.5 90.667 -43.5 122s-66.5 47 -112.5 47zM400.003 640
l50.001 -18c-14.667 -30 -29.334 -51.5 -44.001 -64.5s-31.334 -19.5 -50.001 -19.5c-17.333 0 -46 12 -86 36c-14 8.66699 -25 13 -33 13c-19.333 0 -35 -13.667 -47 -41l-51 23c26.667 52 58.334 78 95.001 78c22 0 53 -13 93 -39c10 -6.66699 18.667 -10 26 -10
c19.333 0 35 14 47 42z" />
    <glyph glyph-name="adieresis" unicode="&#xe4;" horiz-adv-x="577" 
d="M424 385l0.00195312 75.999h76v-461h-76v89c-44.667 -66.667 -100.667 -100 -168 -100c-63.333 0 -115.333 22.5 -156 67.5s-61 102.5 -61 172.5c0 70.667 20.667 128.834 62 174.501s93.666 68.5 156.999 68.5c67.333 0 122.666 -29 165.999 -87zM269.002 403.999
c-50.667 0 -89.333 -19.999 -116 -59.999c-22.667 -32.667 -34 -71.667 -34 -117c0 -48.667 14.167 -89.5 42.5 -122.5s63.5 -49.5 105.5 -49.5c43.333 0 80.5 17.667 111.5 53s46.5 77.666 46.5 126.999c0 50 -14.5 90.667 -43.5 122s-66.5 47 -112.5 47zM193.003 640
c13.333 0 24.5 -4.5 33.5 -13.5s13.5 -20.5 13.5 -34.5c0 -13.333 -4.5 -24.333 -13.5 -33s-20.167 -13 -33.5 -13s-24.5 4.5 -33.5 13.5s-13.5 20.167 -13.5 33.5s4.5 24.5 13.5 33.5s20.167 13.5 33.5 13.5zM393.003 640c13.333 0 24.5 -4.5 33.5 -13.5
s13.5 -20.5 13.5 -34.5c0 -13.333 -4.5 -24.333 -13.5 -33s-20.167 -13 -33.5 -13s-24.5 4.5 -33.5 13.5s-13.5 20.167 -13.5 33.5s4.5 24.5 13.5 33.5s20.167 13.5 33.5 13.5z" />
    <glyph glyph-name="aring" unicode="&#xe5;" horiz-adv-x="577" 
d="M424 385l0.00195312 75.999h76v-461h-76v89c-44.667 -66.667 -100.667 -100 -168 -100c-63.333 0 -115.333 22.5 -156 67.5s-61 102.5 -61 172.5c0 70.667 20.667 128.834 62 174.501s93.666 68.5 156.999 68.5c67.333 0 122.666 -29 165.999 -87zM269.002 403.999
c-50.667 0 -89.333 -19.999 -116 -59.999c-22.667 -32.667 -34 -71.667 -34 -117c0 -48.667 14.167 -89.5 42.5 -122.5s63.5 -49.5 105.5 -49.5c43.333 0 80.5 17.667 111.5 53s46.5 77.666 46.5 126.999c0 50 -14.5 90.667 -43.5 122s-66.5 47 -112.5 47zM273.003 677
c22.667 0 41.499 -7.66895 56.499 -23.002s22.5 -34.666 22.5 -57.999c0 -21.333 -7.83301 -39.666 -23.5 -54.999s-34.5 -23 -56.5 -23c-22.667 0 -41.667 7.66699 -57 23s-23 34 -23 56c0 22.667 7.83301 41.667 23.5 57s34.834 23 57.501 23zM272.002 644.998
c-13.333 0 -24.665 -4.49902 -33.998 -13.499s-14 -20.5 -14 -34.5c0 -13.333 4.66699 -24.5 14 -33.5s20.666 -13.5 33.999 -13.5s24.666 4.5 33.999 13.5s14 20.167 14 33.5s-4.5 24.666 -13.5 33.999s-20.5 14 -34.5 14z" />
    <glyph glyph-name="ae" unicode="&#xe6;" horiz-adv-x="927" 
d="M803 139l65 -26.998c-43.333 -82 -111.333 -123 -204 -123c-70.667 0 -123.667 29.333 -159 88v-77h-75v85c-42.667 -64 -99.334 -96 -170.001 -96c-65.333 0 -118.5 22.333 -159.5 67s-61.5 102.667 -61.5 174c0 70.667 20.5 128.667 61.5 174s93.167 68 156.5 68
c70.667 0 128.334 -28.667 173.001 -86v75h75v-75c38 57.333 92.333 86 163 86s127 -26 169 -78c38 -46.667 57 -99.667 57 -159c0 -10.667 -0.333008 -20.334 -1 -29.001h-388c6 -40.667 18.333 -71.334 37 -92.001c30 -36.667 69.333 -55 118 -55
c57.333 0 105 26.667 143 80zM505 262.002h309c-6.66699 44.667 -23.5 79.5 -50.5 104.5s-61.167 37.5 -102.5 37.5c-54.667 0 -97 -20.667 -127 -62c-14 -19.333 -23.667 -46 -29 -80zM275 404.002c-58.667 0 -101.667 -24 -129 -72c-18 -30 -27 -64.667 -27 -104
c0 -49.333 14.833 -90.5 44.5 -123.5s66.5 -49.5 110.5 -49.5s81 17 111 51s45 76 45 126c0 51.333 -14.333 92.833 -43 124.5s-66 47.5 -112 47.5z" />
    <glyph glyph-name="ccedilla" unicode="&#xe7;" horiz-adv-x="457" 
d="M388 109l47.002 -51.999c-50 -45.333 -106.667 -68 -170 -68c-66 0 -120.167 22.5 -162.5 67.5s-63.5 102.5 -63.5 172.5c0 71.333 21.5 129.666 64.5 174.999s98.167 68 165.5 68c65.333 0 121.333 -23 168 -69l-49 -49c-34.667 32 -73.667 48 -117 48
c-45.333 0 -82.333 -15.833 -111 -47.5s-43 -72.5 -43 -122.5c0 -50.667 14.167 -92.167 42.5 -124.5s65.166 -48.5 110.499 -48.5c43.333 0 82.666 16.667 117.999 50zM189.002 -212.999l-32 34c48.667 28.667 81.667 70.667 99 126l63 -24
c-15.333 -32 -33 -58.5 -53 -79.5s-45.667 -39.833 -77 -56.5z" />
    <glyph glyph-name="egrave" unicode="&#xe8;" horiz-adv-x="539" 
d="M504 206h-384.001c5.33301 -44.667 21.833 -80.334 49.5 -107.001s62.5 -40 104.5 -40c28.667 0 55.5 7.16699 80.5 21.5s44.167 33.5 57.5 57.5l67 -25c-18.667 -38.667 -46.5 -69 -83.5 -91s-77.5 -33 -121.5 -33c-68.667 0 -125 22.5 -169 67.5s-66 102.5 -66 172.5
c0 70.667 21.833 128.834 65.5 174.501s99.167 68.5 166.5 68.5c66.667 0 122.334 -22.5 167.001 -67.5s67 -101.167 67 -168.5c0 -12.667 -0.333008 -22.667 -1 -30zM120.999 262l303 0.000976562c-2.66699 31.333 -11.334 57.666 -26.001 78.999
c-31.333 42 -73.666 63 -126.999 63c-54 0 -95.333 -21.333 -124 -64c-12 -18.667 -20.667 -44.667 -26 -78zM226.999 660.001l82 -132h-54l-118 132h90z" />
    <glyph glyph-name="eacute" unicode="&#xe9;" horiz-adv-x="539" 
d="M504 206h-384.001c5.33301 -44.667 21.833 -80.334 49.5 -107.001s62.5 -40 104.5 -40c28.667 0 55.5 7.16699 80.5 21.5s44.167 33.5 57.5 57.5l67 -25c-18.667 -38.667 -46.5 -69 -83.5 -91s-77.5 -33 -121.5 -33c-68.667 0 -125 22.5 -169 67.5s-66 102.5 -66 172.5
c0 70.667 21.833 128.834 65.5 174.501s99.167 68.5 166.5 68.5c66.667 0 122.334 -22.5 167.001 -67.5s67 -101.167 67 -168.5c0 -12.667 -0.333008 -22.667 -1 -30zM120.999 262l303 0.000976562c-2.66699 31.333 -11.334 57.666 -26.001 78.999
c-31.333 42 -73.666 63 -126.999 63c-54 0 -95.333 -21.333 -124 -64c-12 -18.667 -20.667 -44.667 -26 -78zM312.999 660.001h89l-117 -132h-55z" />
    <glyph glyph-name="ecircumflex" unicode="&#xea;" horiz-adv-x="539" 
d="M504 206h-384.001c5.33301 -44.667 21.833 -80.334 49.5 -107.001s62.5 -40 104.5 -40c28.667 0 55.5 7.16699 80.5 21.5s44.167 33.5 57.5 57.5l67 -25c-18.667 -38.667 -46.5 -69 -83.5 -91s-77.5 -33 -121.5 -33c-68.667 0 -125 22.5 -169 67.5s-66 102.5 -66 172.5
c0 70.667 21.833 128.834 65.5 174.501s99.167 68.5 166.5 68.5c66.667 0 122.334 -22.5 167.001 -67.5s67 -101.167 67 -168.5c0 -12.667 -0.333008 -22.667 -1 -30zM120.999 262l303 0.000976562c-2.66699 31.333 -11.334 57.666 -26.001 78.999
c-31.333 42 -73.666 63 -126.999 63c-54 0 -95.333 -21.333 -124 -64c-12 -18.667 -20.667 -44.667 -26 -78zM268.999 612.001l-73 -84h-65l104 133h72l101 -133h-66z" />
    <glyph glyph-name="edieresis" unicode="&#xeb;" horiz-adv-x="539" 
d="M504 206h-384.001c5.33301 -44.667 21.833 -80.334 49.5 -107.001s62.5 -40 104.5 -40c28.667 0 55.5 7.16699 80.5 21.5s44.167 33.5 57.5 57.5l67 -25c-18.667 -38.667 -46.5 -69 -83.5 -91s-77.5 -33 -121.5 -33c-68.667 0 -125 22.5 -169 67.5s-66 102.5 -66 172.5
c0 70.667 21.833 128.834 65.5 174.501s99.167 68.5 166.5 68.5c66.667 0 122.334 -22.5 167.001 -67.5s67 -101.167 67 -168.5c0 -12.667 -0.333008 -22.667 -1 -30zM120.999 262l303 0.000976562c-2.66699 31.333 -11.334 57.666 -26.001 78.999
c-31.333 42 -73.666 63 -126.999 63c-54 0 -95.333 -21.333 -124 -64c-12 -18.667 -20.667 -44.667 -26 -78zM168.999 640.001c13.333 0 24.5 -4.5 33.5 -13.5s13.5 -20.5 13.5 -34.5c0 -13.333 -4.5 -24.333 -13.5 -33s-20.167 -13 -33.5 -13s-24.5 4.5 -33.5 13.5
s-13.5 20.167 -13.5 33.5s4.5 24.5 13.5 33.5s20.167 13.5 33.5 13.5zM368.999 640.001c13.333 0 24.5 -4.5 33.5 -13.5s13.5 -20.5 13.5 -34.5c0 -13.333 -4.5 -24.333 -13.5 -33s-20.167 -13 -33.5 -13s-24.5 4.5 -33.5 13.5s-13.5 20.167 -13.5 33.5s4.5 24.5 13.5 33.5
s20.167 13.5 33.5 13.5z" />
    <glyph glyph-name="igrave" unicode="&#xec;" horiz-adv-x="229" 
d="M153 461v-461h-76v461h76zM72 660l82 -132h-54l-118 132h90z" />
    <glyph glyph-name="iacute" unicode="&#xed;" horiz-adv-x="229" 
d="M152 461v-461h-76v461h76zM158 660h89l-117 -132h-55z" />
    <glyph glyph-name="icircumflex" unicode="&#xee;" horiz-adv-x="229" 
d="M152 461v-461h-76v461h76zM114 612l-73 -84h-65l104 133h72l101 -133h-66z" />
    <glyph glyph-name="idieresis" unicode="&#xef;" horiz-adv-x="229" 
d="M152 461v-461h-76v461h76zM45 640c13.333 0 24.5 -4.5 33.5 -13.5s13.5 -20.5 13.5 -34.5c0 -13.333 -4.5 -24.333 -13.5 -33s-20.167 -13 -33.5 -13s-24.5 4.5 -33.5 13.5s-13.5 20.167 -13.5 33.5s4.5 24.5 13.5 33.5s20.167 13.5 33.5 13.5zM184 640
c13.333 0 24.5 -4.5 33.5 -13.5s13.5 -20.5 13.5 -34.5c0 -13.333 -4.5 -24.333 -13.5 -33s-20.167 -13 -33.5 -13s-24.5 4.5 -33.5 13.5s-13.5 20.167 -13.5 33.5s4.5 24.5 13.5 33.5s20.167 13.5 33.5 13.5z" />
    <glyph glyph-name="eth" unicode="&#xf0;" horiz-adv-x="549" 
d="M180 560l88.998 48.999c-12 11.333 -29.167 24.5 -51.5 39.5s-38.833 24.833 -49.5 29.5l24 31c39.333 -13.333 80.666 -38 123.999 -74l103 56l22 -38l-87 -47c48.667 -46 86.834 -100.167 114.501 -162.5s41.5 -125.833 41.5 -190.5
c0 -79.333 -21.833 -143.166 -65.5 -191.499s-101.167 -72.5 -172.5 -72.5c-68.667 0 -124.667 22.667 -168 68s-65 103.666 -65 174.999c0 70.667 21.833 128.334 65.5 173.001s99.834 67 168.501 67c39.333 0 79.333 -11.333 120 -34
c-17.333 50 -47.666 96.667 -90.999 140l-101 -57zM272.998 401.999c-46 0 -83.501 -15.832 -112.501 -47.499s-43.5 -72.5 -43.5 -122.5c0 -52 14.333 -93.833 43 -125.5s66.334 -47.5 113.001 -47.5s84.667 16.167 114 48.5s44 74.166 44 125.499
c0 50 -14.667 90.667 -44 122s-67.333 47 -114 47z" />
    <glyph glyph-name="ntilde" unicode="&#xf1;" horiz-adv-x="509" 
d="M76 461h75.998v-65c37.333 50.667 83 76 137 76c42.667 0 78.334 -12.667 107.001 -38c14.667 -14 24.834 -30.167 30.501 -48.5s8.5 -43.166 8.5 -74.499v-311h-76v294c0 37.333 -5.66699 63.666 -17 78.999c-14 20.667 -38 31 -72 31c-36 0 -65.333 -13 -88 -39
c-20 -22 -30 -50 -30 -84v-281h-76v461zM365.998 640l50.001 -18c-14.667 -30 -29.334 -51.5 -44.001 -64.5s-31.334 -19.5 -50.001 -19.5c-17.333 0 -46 12 -86 36c-14 8.66699 -25 13 -33 13c-19.333 0 -35 -13.667 -47 -41l-51 23c26.667 52 58.334 78 95.001 78
c22 0 53 -13 93 -39c10 -6.66699 18.667 -10 26 -10c19.333 0 35 14 47 42z" />
    <glyph glyph-name="ograve" unicode="&#xf2;" horiz-adv-x="548" 
d="M275 472c68 0 123.833 -22.833 167.5 -68.5s65.5 -103.834 65.5 -174.501c0 -67.333 -22.667 -124.166 -68 -170.499s-101.333 -69.5 -168 -69.5c-68.667 0 -124.667 22.5 -168 67.5s-65 103.167 -65 174.5s21.833 129.333 65.5 174s100.5 67 170.5 67zM275 402
c-47.333 0 -85.499 -15.834 -114.499 -47.501s-43.5 -73.167 -43.5 -124.5s14.5 -92.666 43.5 -123.999s66.833 -47 113.5 -47c45.333 0 82.666 16 111.999 48s44 73 44 123c0 51.333 -14.167 92.833 -42.5 124.5s-65.833 47.5 -112.5 47.5zM231.001 659.999l82 -132h-54
l-118 132h90z" />
    <glyph glyph-name="oacute" unicode="&#xf3;" horiz-adv-x="548" 
d="M275 472c68 0 123.833 -22.833 167.5 -68.5s65.5 -103.834 65.5 -174.501c0 -67.333 -22.667 -124.166 -68 -170.499s-101.333 -69.5 -168 -69.5c-68.667 0 -124.667 22.5 -168 67.5s-65 103.167 -65 174.5s21.833 129.333 65.5 174s100.5 67 170.5 67zM275 402
c-47.333 0 -85.499 -15.834 -114.499 -47.501s-43.5 -73.167 -43.5 -124.5s14.5 -92.666 43.5 -123.999s66.833 -47 113.5 -47c45.333 0 82.666 16 111.999 48s44 73 44 123c0 51.333 -14.167 92.833 -42.5 124.5s-65.833 47.5 -112.5 47.5zM317.001 659.999h89l-117 -132
h-55z" />
    <glyph glyph-name="ocircumflex" unicode="&#xf4;" horiz-adv-x="548" 
d="M275 472c68 0 123.833 -22.833 167.5 -68.5s65.5 -103.834 65.5 -174.501c0 -67.333 -22.667 -124.166 -68 -170.499s-101.333 -69.5 -168 -69.5c-68.667 0 -124.667 22.5 -168 67.5s-65 103.167 -65 174.5s21.833 129.333 65.5 174s100.5 67 170.5 67zM275 402
c-47.333 0 -85.499 -15.834 -114.499 -47.501s-43.5 -73.167 -43.5 -124.5s14.5 -92.666 43.5 -123.999s66.833 -47 113.5 -47c45.333 0 82.666 16 111.999 48s44 73 44 123c0 51.333 -14.167 92.833 -42.5 124.5s-65.833 47.5 -112.5 47.5zM273.001 611.999l-73 -84h-65
l104 133h72l101 -133h-66z" />
    <glyph glyph-name="otilde" unicode="&#xf5;" horiz-adv-x="548" 
d="M275 472c68 0 123.833 -22.833 167.5 -68.5s65.5 -103.834 65.5 -174.501c0 -67.333 -22.667 -124.166 -68 -170.499s-101.333 -69.5 -168 -69.5c-68.667 0 -124.667 22.5 -168 67.5s-65 103.167 -65 174.5s21.833 129.333 65.5 174s100.5 67 170.5 67zM275 402
c-47.333 0 -85.499 -15.834 -114.499 -47.501s-43.5 -73.167 -43.5 -124.5s14.5 -92.666 43.5 -123.999s66.833 -47 113.5 -47c45.333 0 82.666 16 111.999 48s44 73 44 123c0 51.333 -14.167 92.833 -42.5 124.5s-65.833 47.5 -112.5 47.5zM386.001 639.999l50.001 -18
c-14.667 -30 -29.334 -51.5 -44.001 -64.5s-31.334 -19.5 -50.001 -19.5c-17.333 0 -46 12 -86 36c-14 8.66699 -25 13 -33 13c-19.333 0 -35 -13.667 -47 -41l-51 23c26.667 52 58.334 78 95.001 78c22 0 53 -13 93 -39c10 -6.66699 18.667 -10 26 -10
c19.333 0 35 14 47 42z" />
    <glyph glyph-name="odieresis" unicode="&#xf6;" horiz-adv-x="548" 
d="M275 472c68 0 123.833 -22.833 167.5 -68.5s65.5 -103.834 65.5 -174.501c0 -67.333 -22.667 -124.166 -68 -170.499s-101.333 -69.5 -168 -69.5c-68.667 0 -124.667 22.5 -168 67.5s-65 103.167 -65 174.5s21.833 129.333 65.5 174s100.5 67 170.5 67zM275 402
c-47.333 0 -85.499 -15.834 -114.499 -47.501s-43.5 -73.167 -43.5 -124.5s14.5 -92.666 43.5 -123.999s66.833 -47 113.5 -47c45.333 0 82.666 16 111.999 48s44 73 44 123c0 51.333 -14.167 92.833 -42.5 124.5s-65.833 47.5 -112.5 47.5zM174.001 639.999
c13.333 0 24.5 -4.5 33.5 -13.5s13.5 -20.5 13.5 -34.5c0 -13.333 -4.5 -24.333 -13.5 -33s-20.167 -13 -33.5 -13s-24.5 4.5 -33.5 13.5s-13.5 20.167 -13.5 33.5s4.5 24.5 13.5 33.5s20.167 13.5 33.5 13.5zM374.001 639.999c13.333 0 24.5 -4.5 33.5 -13.5
s13.5 -20.5 13.5 -34.5c0 -13.333 -4.5 -24.333 -13.5 -33s-20.167 -13 -33.5 -13s-24.5 4.5 -33.5 13.5s-13.5 20.167 -13.5 33.5s4.5 24.5 13.5 33.5s20.167 13.5 33.5 13.5z" />
    <glyph glyph-name="divide" unicode="&#xf7;" 
d="M22 364h456v-44h-456v44zM251 565c10.667 0 19.833 -4 27.5 -12s11.5 -17.333 11.5 -28c0 -11.333 -4 -20.833 -12 -28.5s-17.333 -11.5 -28 -11.5s-20 3.83301 -28 11.5s-12 17.167 -12 28.5s4 20.833 12 28.5s17.667 11.5 29 11.5zM249.999 198c10.667 0 20 -4 28 -12
s12 -17.333 12 -28s-4 -20 -12 -28s-17.333 -12 -28 -12s-20 4 -28 12s-12 17.333 -12 28s4 20 12 28s17.333 12 28 12z" />
    <glyph glyph-name="oslash" unicode="&#xf8;" horiz-adv-x="548" 
d="M119 43l-52.999 -55.999l-28 27l54 56c-35.333 48.667 -53 102 -53 160c0 70.667 21.667 128.667 65 174s99 68 167 68c57.333 0 108.666 -17.333 153.999 -52l60 63l27 -27l-60 -62c37.333 -49.333 56 -103.333 56 -162c0 -70.667 -22.333 -128.834 -67 -174.501
s-101.667 -68.5 -171 -68.5c-56.667 0 -107 18 -151 54zM399.001 340.001l-226.999 -243c30.667 -25.333 65 -38 103 -38c45.333 0 82.666 16.167 111.999 48.5s44 73.833 44 124.5c0 38 -10.667 74 -32 108zM146.002 125.001l225.999 242
c-29.333 23.333 -62.666 35 -99.999 35c-46.667 0 -84.5 -16 -113.5 -48s-43.5 -73.333 -43.5 -124c0 -38.667 10.333 -73.667 31 -105z" />
    <glyph glyph-name="ugrave" unicode="&#xf9;" horiz-adv-x="485" 
d="M344 461l76.999 -0.000976562v-295c0 -32 -3.5 -57.667 -10.5 -77s-18.833 -36.666 -35.5 -51.999c-35.333 -32 -79.666 -48 -132.999 -48c-54 0 -98.333 16.333 -133 49c-30.667 30 -46 72.667 -46 128v295h76v-293c0 -32.667 9.5 -59.334 28.5 -80.001
s43.833 -31 74.5 -31c34.667 0 61.667 11.667 81 35c14 16.667 21 41.334 21 74.001v295zM198.999 659.999l82 -132h-54l-118 132h90z" />
    <glyph glyph-name="uacute" unicode="&#xfa;" horiz-adv-x="485" 
d="M344 461l76.999 -0.000976562v-295c0 -32 -3.5 -57.667 -10.5 -77s-18.833 -36.666 -35.5 -51.999c-35.333 -32 -79.666 -48 -132.999 -48c-54 0 -98.333 16.333 -133 49c-30.667 30 -46 72.667 -46 128v295h76v-293c0 -32.667 9.5 -59.334 28.5 -80.001
s43.833 -31 74.5 -31c34.667 0 61.667 11.667 81 35c14 16.667 21 41.334 21 74.001v295zM285.999 659.999h89l-117 -132h-55z" />
    <glyph glyph-name="ucircumflex" unicode="&#xfb;" horiz-adv-x="485" 
d="M344 461l76.999 -0.000976562v-295c0 -32 -3.5 -57.667 -10.5 -77s-18.833 -36.666 -35.5 -51.999c-35.333 -32 -79.666 -48 -132.999 -48c-54 0 -98.333 16.333 -133 49c-30.667 30 -46 72.667 -46 128v295h76v-293c0 -32.667 9.5 -59.334 28.5 -80.001
s43.833 -31 74.5 -31c34.667 0 61.667 11.667 81 35c14 16.667 21 41.334 21 74.001v295zM241.999 611.999l-73 -84h-65l104 133h72l101 -133h-66z" />
    <glyph glyph-name="udieresis" unicode="&#xfc;" horiz-adv-x="485" 
d="M344 461l76.999 -0.000976562v-295c0 -32 -3.5 -57.667 -10.5 -77s-18.833 -36.666 -35.5 -51.999c-35.333 -32 -79.666 -48 -132.999 -48c-54 0 -98.333 16.333 -133 49c-30.667 30 -46 72.667 -46 128v295h76v-293c0 -32.667 9.5 -59.334 28.5 -80.001
s43.833 -31 74.5 -31c34.667 0 61.667 11.667 81 35c14 16.667 21 41.334 21 74.001v295zM141.999 639.999c13.333 0 24.5 -4.5 33.5 -13.5s13.5 -20.5 13.5 -34.5c0 -13.333 -4.5 -24.333 -13.5 -33s-20.167 -13 -33.5 -13s-24.5 4.5 -33.5 13.5s-13.5 20.167 -13.5 33.5
s4.5 24.5 13.5 33.5s20.167 13.5 33.5 13.5zM341.999 639.999c13.333 0 24.5 -4.5 33.5 -13.5s13.5 -20.5 13.5 -34.5c0 -13.333 -4.5 -24.333 -13.5 -33s-20.167 -13 -33.5 -13s-24.5 4.5 -33.5 13.5s-13.5 20.167 -13.5 33.5s4.5 24.5 13.5 33.5s20.167 13.5 33.5 13.5z
" />
    <glyph glyph-name="yacute" unicode="&#xfd;" horiz-adv-x="438" 
d="M211 119l138 342h83l-275 -683h-83l96 236l-164 447h81zM262 660h89l-117 -132h-55z" />
    <glyph glyph-name="thorn" unicode="&#xfe;" horiz-adv-x="574" 
d="M74 667h75.999v-290c22 34 45.833 58.333 71.5 73s57.834 22 96.501 22c64 0 116.167 -22.167 156.5 -66.5s60.5 -101.5 60.5 -171.5c0 -72.667 -20.167 -131.667 -60.5 -177s-92.5 -68 -156.5 -68c-35.333 0 -69 8 -101 24c-24 12 -46.333 31.667 -67 59v-288h-76v883z
M304.999 404c-46 0 -83.333 -16.666 -112 -49.999s-43 -77 -43 -131c0 -50.667 14 -91.334 42 -122.001s64.667 -46 110 -46s82 16.167 110 48.5s42 74.833 42 127.5c0 56.667 -14.667 99.667 -44 129c-28 29.333 -63 44 -105 44z" />
    <glyph glyph-name="ydieresis" unicode="&#xff;" horiz-adv-x="438" 
d="M211 119l138 342h83l-275 -683h-83l96 236l-164 447h81zM119 640c13.333 0 24.5 -4.5 33.5 -13.5s13.5 -20.5 13.5 -34.5c0 -13.333 -4.5 -24.333 -13.5 -33s-20.167 -13 -33.5 -13s-24.5 4.5 -33.5 13.5s-13.5 20.167 -13.5 33.5s4.5 24.5 13.5 33.5
s20.167 13.5 33.5 13.5zM319 640c13.333 0 24.5 -4.5 33.5 -13.5s13.5 -20.5 13.5 -34.5c0 -13.333 -4.5 -24.333 -13.5 -33s-20.167 -13 -33.5 -13s-24.5 4.5 -33.5 13.5s-13.5 20.167 -13.5 33.5s4.5 24.5 13.5 33.5s20.167 13.5 33.5 13.5z" />
    <glyph glyph-name="dotlessi" unicode="&#x131;" horiz-adv-x="229" 
d="M152 461v-461h-76v461h76z" />
    <glyph glyph-name="Lslash" unicode="&#x141;" horiz-adv-x="427" 
d="M83 345v322h84v-277l111 82v-78l-111 -82v-236h235v-76h-319v268l-68 -52v78z" />
    <glyph glyph-name="lslash" unicode="&#x142;" horiz-adv-x="233" 
d="M78 369v298h76v-256l68 51v-71l-68 -50v-341h-76v299l-67 -51v71z" />
    <glyph glyph-name="OE" unicode="&#x152;" horiz-adv-x="998" 
d="M689 300l0.000976562 -228h259v-72h-342v115c-26.667 -37.333 -54 -64.333 -82 -81c-48.667 -30.667 -101.667 -46 -159 -46c-45.333 0 -89 9.5 -131 28.5s-77.333 45.167 -106 78.5c-54.667 62 -82 142.667 -82 242c0 100 30.333 182 91 246s138.667 96 234 96
c97.333 0 175.666 -39.667 234.999 -119v107h342v-72h-259v-223h259v-72h-259zM374.001 601c-72 0 -130.332 -24.5 -174.999 -73.5s-67 -113.167 -67 -192.5c0 -77.333 22.5 -141.5 67.5 -192.5s101.5 -76.5 169.5 -76.5c68.667 0 125.667 25 171 75s68 112.667 68 188
c0 81.333 -21.333 147 -64 197s-99.334 75 -170.001 75z" />
    <glyph glyph-name="oe" unicode="&#x153;" horiz-adv-x="923" 
d="M810 139l61.0029 -25.999c-18 -32.667 -38.667 -57.667 -62 -75c-43.333 -32.667 -91 -49 -143 -49s-99 15.667 -141 47c-22 15.333 -41 40 -57 74c-9.33301 -20 -18 -35 -26 -45s-19.667 -20.667 -35 -32c-40.667 -29.333 -86 -44 -136 -44
c-67.333 0 -122.833 22.5 -166.5 67.5s-65.5 102.5 -65.5 172.5c0 71.333 21.667 129.666 65 174.999s99.333 68 168 68c52 0 97.333 -14 136 -42c24 -16.667 44 -41 60 -73c11.333 20.667 21.666 36.167 30.999 46.5s21.666 20.5 36.999 30.5
c38.667 25.333 81.334 38 128.001 38c58 0 107.667 -17.833 149 -53.5s66.666 -82.834 75.999 -141.501c2.66699 -13.333 4 -37.333 4 -72h-385c3.33301 -37.333 14.333 -67 33 -89c32.667 -38 73.667 -57 123 -57c36.667 0 70 10 100 30
c13.333 8.66699 28.666 25.334 45.999 50.001zM507.003 261.001h311c-4 33.333 -13 60 -27 80c-29.333 42 -72.333 63 -129 63c-49.333 0 -89 -18.333 -119 -55c-18.667 -22 -30.667 -51.333 -36 -88zM275.003 402.001c-46 0 -83.834 -16.001 -113.501 -48.001
s-44.5 -72.667 -44.5 -122c0 -51.333 14.833 -93 44.5 -125s67.834 -48 114.501 -48c45.333 0 82.833 16 112.5 48s44.5 72.333 44.5 121c0 50.667 -14.833 92.334 -44.5 125.001s-67.5 49 -113.5 49z" />
    <glyph glyph-name="Scaron" unicode="&#x160;" horiz-adv-x="490" 
d="M38 179h80.001c4 -77.333 43.333 -116 118 -116c37.333 0 68 10.5 92 31.5s36 48.167 36 81.5c0 29.333 -9.33301 52.333 -28 69s-54.334 33.667 -107.001 51c-65.333 22 -110.333 44.333 -135 67c-34.667 31.333 -52 73.333 -52 126c0 56.667 18.333 102.5 55 137.5
s84.667 52.5 144 52.5c58.667 0 106 -17.333 142 -52s54.667 -81 56 -139h-84c-0.666992 29.333 -6 52.333 -16 69c-20.667 31.333 -53.667 47 -99 47c-33.333 0 -60.5 -10.167 -81.5 -30.5s-31.5 -46.5 -31.5 -78.5c0 -33.333 12.667 -59 38 -77
c17.333 -12 53 -27.667 107 -47c64.667 -22.667 108.667 -46.667 132 -72c30 -32 45 -71.333 45 -118c0 -57.333 -19.333 -103.833 -58 -139.5s-89.334 -53.5 -152.001 -53.5c-83.333 0 -142.666 30 -177.999 90c-15.333 26 -23 55 -23 87v14zM246.001 769l75 83h66
l-108 -133h-70l-104 133h65z" />
    <glyph glyph-name="scaron" unicode="&#x161;" horiz-adv-x="411" 
d="M365 335l-76.001 0.00195312v5c0 21.333 -8 38.333 -24 51s-37.333 19 -64 19c-24.667 0 -44.667 -6 -60 -18s-23 -27.667 -23 -47c0 -21.333 6.5 -37 19.5 -47s40.833 -20.667 83.5 -32c54 -14.667 91.333 -32.334 112 -53.001c24.667 -24.667 37 -54.667 37 -90
c0 -40 -15.167 -72.333 -45.5 -97s-69.833 -37 -118.5 -37c-106.667 0 -164 47.333 -172 142h75c5.33301 -53.333 37.666 -80 96.999 -80c26 0 46.833 6.16699 62.5 18.5s23.5 28.833 23.5 49.5c0 20 -7.66699 35.833 -23 47.5s-42.666 22.5 -81.999 32.5
c-50 13.333 -86.667 31.166 -110 53.499s-35 50.833 -35 85.5c0 40 14.833 72.333 44.5 97s68.834 37 117.501 37c49.333 0 88 -12 116 -36s43 -57.667 45 -101zM205.999 577.002l73 84h65l-104 -133h-72l-101 133h66z" />
    <glyph glyph-name="Ydieresis" unicode="&#x178;" horiz-adv-x="529" 
d="M308 294v-294h-84v294l-230 373h99l172 -286l170 286h100zM162 838c14.667 0 26.833 -5.00195 36.5 -15.002s14.5 -22.333 14.5 -37c0 -14 -5 -25.833 -15 -35.5s-22 -14.5 -36 -14.5c-14.667 0 -26.834 4.83301 -36.501 14.5s-14.5 21.834 -14.5 36.501
s4.83301 26.834 14.5 36.501s21.834 14.5 36.501 14.5zM365.999 837.998c14.667 0 26.833 -5.00195 36.5 -15.002s14.5 -22.333 14.5 -37c0 -14 -5 -25.833 -15 -35.5s-22 -14.5 -36 -14.5c-14.667 0 -26.834 4.83301 -36.501 14.5s-14.5 21.834 -14.5 36.501
s4.83301 26.834 14.5 36.501s21.834 14.5 36.501 14.5z" />
    <glyph glyph-name="Zcaron" unicode="&#x17d;" horiz-adv-x="539" 
d="M152 72h338v-72h-477l378 595h-336v72h474zM269 769l75 83h66l-108 -133h-70l-104 133h65z" />
    <glyph glyph-name="zcaron" unicode="&#x17e;" horiz-adv-x="401" 
d="M150 67h212v-67h-340l240 394h-214v67h339zM201 577l73 84h65l-104 -133h-72l-101 133h66z" />
    <glyph glyph-name="florin" unicode="&#x192;" 
d="M233 412l-62.999 -0.000976562l8 49h63l22 121c8 45.333 25.5 80.666 52.5 105.999s60.833 38 101.5 38c7.33301 0 13.666 -0.333008 18.999 -1l-12 -68c-28 -2.66699 -47.833 -9.16699 -59.5 -19.5s-20.167 -28.833 -25.5 -55.5l-21 -121h71l-8 -49h-72l-65 -369
c-8.66699 -55.333 -28.667 -98.166 -60 -128.499s-72.333 -46.166 -123 -47.499l13 71c50 4 81 38.667 93 104z" />
    <glyph glyph-name="circumflex" unicode="&#x2c6;" 
d="M250 612l-73 -84h-65l104 133h72l101 -133h-66z" />
    <glyph glyph-name="caron" unicode="&#x2c7;" 
d="M251 577l73 84h65l-104 -133h-72l-101 133h66z" />
    <glyph glyph-name="breve" unicode="&#x2d8;" 
d="M101 655l62.0029 0.000976562c9.33301 -18.667 20.666 -31.834 33.999 -39.501s31 -11.5 53 -11.5c40 0 68.667 17 86 51h62c-8.66699 -32.667 -25.834 -58 -51.501 -76s-57.834 -27 -96.501 -27s-71 9 -97 27s-43.333 43.333 -52 76z" />
    <glyph glyph-name="dotaccent" unicode="&#x2d9;" 
d="M250 640c13.333 0 24.5 -4.5 33.5 -13.5s13.5 -20.5 13.5 -34.5c0 -13.333 -4.5 -24.333 -13.5 -33s-20.167 -13 -33.5 -13s-24.5 4.5 -33.5 13.5s-13.5 20.167 -13.5 33.5s4.5 24.5 13.5 33.5s20.167 13.5 33.5 13.5z" />
    <glyph glyph-name="ring" unicode="&#x2da;" 
d="M251 677c22.667 0 41.499 -7.66895 56.499 -23.002s22.5 -34.666 22.5 -57.999c0 -21.333 -7.83301 -39.666 -23.5 -54.999s-34.5 -23 -56.5 -23c-22.667 0 -41.667 7.66699 -57 23s-23 34 -23 56c0 22.667 7.83301 41.667 23.5 57s34.834 23 57.501 23zM249.999 644.998
c-13.333 0 -24.665 -4.49902 -33.998 -13.499s-14 -20.5 -14 -34.5c0 -13.333 4.66699 -24.5 14 -33.5s20.666 -13.5 33.999 -13.5s24.666 4.5 33.999 13.5s14 20.167 14 33.5s-4.5 24.666 -13.5 33.999s-20.5 14 -34.5 14z" />
    <glyph glyph-name="ogonek" unicode="&#x2db;" 
d="M237 0l53 -0.000976562c-26 -21.333 -42.833 -37.166 -50.5 -47.499s-11.5 -22.5 -11.5 -36.5c0 -12.667 5 -23 15 -31s23.333 -12 40 -12c10.667 0 22.667 2 36 6l9 -46c-18.667 -6.66699 -36.667 -10 -54 -10c-30 0 -54.5 7.33301 -73.5 22s-28.5 33.667 -28.5 57
c0 38 21.667 70.667 65 98z" />
    <glyph glyph-name="tilde" unicode="&#x2dc;" 
d="M362 640l50.001 -18c-14.667 -30 -29.334 -51.5 -44.001 -64.5s-31.334 -19.5 -50.001 -19.5c-17.333 0 -46 12 -86 36c-14 8.66699 -25 13 -33 13c-19.333 0 -35 -13.667 -47 -41l-51 23c26.667 52 58.334 78 95.001 78c22 0 53 -13 93 -39
c10 -6.66699 18.667 -10 26 -10c19.333 0 35 14 47 42z" />
    <glyph glyph-name="hungarumlaut" unicode="&#x2dd;" 
d="M210 659h83l-98 -131h-50zM357 659h83l-98 -131h-50z" />
    <glyph glyph-name="mu" unicode="&#x3bc;" 
d="M50 -166l0.000976562 645.999h72v-271c0 -34 2.33301 -59.167 7 -75.5s13.667 -31.833 27 -46.5c26 -26 55.667 -39 89 -39c40 0 72.333 15.833 97 47.5s37 72.834 37 123.501v261h71v-480h-71v91c-27.333 -69.333 -72.333 -104 -135 -104
c-50.667 0 -91.334 24.667 -122.001 74v-227h-72z" />
    <glyph glyph-name="endash" unicode="&#x2013;" 
d="M430 274v-67h-359v67h359z" />
    <glyph glyph-name="emdash" unicode="&#x2014;" horiz-adv-x="622" 
d="M622 274v-64h-622v64h622z" />
    <glyph glyph-name="quoteleft" unicode="&#x2018;" horiz-adv-x="221" 
d="M39 477l91 203l56 -19l-81 -209z" />
    <glyph glyph-name="quoteright" unicode="&#x2019;" horiz-adv-x="221" 
d="M183 656l-92 -204l-55 19l81 209z" />
    <glyph glyph-name="quotesinglbase" unicode="&#x201a;" horiz-adv-x="223" 
d="M185 76l-93 -209l-56 20l82 214z" />
    <glyph glyph-name="quotedblleft" unicode="&#x201c;" horiz-adv-x="403" 
d="M214 446l100 234l56 -20l-87 -238zM39 446l100 234l56 -20l-87 -239z" />
    <glyph glyph-name="quotedblright" unicode="&#x201d;" horiz-adv-x="403" 
d="M189 656l-101 -235l-55 20l86 239zM364 656l-101 -235l-56 20l87 239z" />
    <glyph glyph-name="quotedblbase" unicode="&#x201e;" horiz-adv-x="403" 
d="M189 77l-101 -235l-55 20l86 238zM364 77l-101 -235l-56 20l87 239z" />
    <glyph glyph-name="dagger" unicode="&#x2020;" 
d="M217 667h67v-177h147v-60h-147v-641h-67v641h-147v60h147v177z" />
    <glyph glyph-name="daggerdbl" unicode="&#x2021;" 
d="M217 667h67v-179h147v-60h-147v-398h147v-60h-147v-181h-67v181h-147v60h147v398h-147v60h147v179z" />
    <glyph glyph-name="bullet" unicode="&#x2022;" horiz-adv-x="667" 
d="M337 477c36.667 0 68.501 -13.668 95.501 -41.001s40.5 -59.666 40.5 -96.999c0 -38.667 -13.5 -71.5 -40.5 -98.5s-59.5 -40.5 -97.5 -40.5s-70.667 13.5 -98 40.5s-41 59.5 -41 97.5c0 38.667 13.667 71.5 41 98.5s60.666 40.5 99.999 40.5z" />
    <glyph glyph-name="ellipsis" unicode="&#x2026;" horiz-adv-x="692" 
d="M115 96c15.333 0 27.833 -4.99902 37.5 -14.999s14.5 -22.667 14.5 -38c0 -14.667 -5 -26.834 -15 -36.501s-22.333 -14.5 -37 -14.5c-15.333 0 -27.833 5 -37.5 15s-14.5 22.333 -14.5 37s4.83301 27 14.5 37s22.167 15 37.5 15zM346 96.001
c15.333 0 27.833 -4.99902 37.5 -14.999s14.5 -22.667 14.5 -38c0 -14.667 -5 -26.834 -15 -36.501s-22.333 -14.5 -37 -14.5s-27 5 -37 15s-15 22.333 -15 37s5 27 15 37s22.333 15 37 15zM576 96.002c15.333 0 27.833 -4.99902 37.5 -14.999s14.5 -22.667 14.5 -38
c0 -14.667 -5 -26.834 -15 -36.501s-22.333 -14.5 -37 -14.5s-27 5 -37 15s-15 22.333 -15 37s5 27 15 37s22.333 15 37 15z" />
    <glyph glyph-name="perthousand" unicode="&#x2030;" horiz-adv-x="897" 
d="M255 548l0.00195312 -107.999c0 -74 -34.667 -111 -104 -111c-35.333 0 -62.666 10.667 -81.999 32c-8.66699 9.33301 -14.334 19.5 -17.001 30.5s-4 28.833 -4 53.5v102c0 44.667 8.33301 75.667 25 93c18.667 20 45 30 79 30c29.333 0 54.666 -9 75.999 -27
c11.333 -11.333 18.666 -22.833 21.999 -34.5s5 -31.834 5 -60.501zM97.002 546.001l-0.000976562 -92c0 -29.333 3 -48.666 9 -57.999c10 -14 25.333 -21 46 -21c22.667 0 38.334 8 47.001 24c5.33301 10 8 27.333 8 52v103c0 46 -18 69 -54 69
c-21.333 0 -36.333 -6 -45 -18c-7.33301 -8.66699 -11 -28.334 -11 -59.001zM570.001 215.001l0.000976562 -108c0 -73.333 -34.667 -110 -104 -110c-35.333 0 -62.666 10.667 -81.999 32c-8.66699 9.33301 -14.334 19.333 -17.001 30s-4 28.334 -4 53.001v102
c0 44.667 8.33301 75.667 25 93c18.667 20 45 30 79 30c30.667 0 56 -9 76 -27c11.333 -10.667 18.666 -21.834 21.999 -33.501s5 -32.167 5 -61.5zM412.002 213.001l-0.000976562 -91.999c0 -28.667 3 -47.667 9 -57c10 -14 25.333 -21 46 -21c22.667 0 38.334 8 47.001 24
c5.33301 10 8 27 8 51v103c0 46 -18 69 -54 69c-21.333 0 -36.333 -6 -45 -18c-7.33301 -8.66699 -11 -28.334 -11 -59.001zM554.001 653.002l-457 -661l-33 23l457 660zM849.001 215.002l0.000976562 -108c0 -73.333 -34.667 -110 -104 -110
c-35.333 0 -62.666 10.667 -81.999 32c-8.66699 9.33301 -14.334 19.333 -17.001 30s-4 28.334 -4 53.001v102c0 44.667 8.33301 75.667 25 93c18.667 20 45 30 79 30c30.667 0 56 -9 76 -27c11.333 -10.667 18.666 -21.834 21.999 -33.501s5 -32.167 5 -61.5z
M691.002 213.002l-0.000976562 -91.999c0 -28.667 3 -47.667 9 -57c10 -14 25.333 -21 46 -21c22.667 0 38.334 8 47.001 24c5.33301 10 8 27 8 51v103c0 46 -18 69 -54 69c-21.333 0 -36.333 -6 -45 -18c-7.33301 -8.66699 -11 -28.334 -11 -59.001z" />
    <glyph glyph-name="guilsinglleft" unicode="&#x2039;" horiz-adv-x="254" 
d="M102 235l102 -164h-60l-101 164l101 171h60z" />
    <glyph glyph-name="guilsinglright" unicode="&#x203a;" horiz-adv-x="254" 
d="M151 242l-101 164h60l101 -164l-101 -171h-60z" />
    <glyph glyph-name="fraction" unicode="&#x2044;" horiz-adv-x="124" 
d="M307 648l-457 -661l-33 23l457 660z" />
    <glyph glyph-name="trademark" unicode="&#x2122;" horiz-adv-x="828" 
d="M177 618v-351h-60v351h-105v49h270v-49h-105zM412 542v-275h-60v400h58l151 -290l151 290h58v-400h-60v275l-149 -284z" />
    <glyph glyph-name="minus" unicode="&#x2212;" 
d="M22 364h456v-44h-456v44z" />
    <glyph glyph-name="fi" unicode="&#xfb01;" horiz-adv-x="509" 
d="M160 394l0.000976562 -394h-76v394h-63v67h63v62c0 46 11.167 81.667 33.5 107s53.5 38 93.5 38c8.66699 0 15.667 -0.333008 21 -1v-68c-28.667 -4 -47.834 -11 -57.501 -21s-14.5 -28.333 -14.5 -55v-62h72v-67h-72zM432.001 461v-461h-76v461h76zM394.001 640
c14 0 25.667 -4.83398 35 -14.501s14 -21.5 14 -35.5c0 -13.333 -4.83301 -24.666 -14.5 -33.999s-21.167 -14 -34.5 -14c-14 0 -25.667 4.66699 -35 14s-14 21 -14 35s4.66699 25.667 14 35s21 14 35 14z" />
    <glyph glyph-name="fl" unicode="&#xfb02;" horiz-adv-x="509" 
d="M160 394l0.000976562 -394h-76v394h-63v67h63v62c0 46 11.167 81.667 33.5 107s53.5 38 93.5 38c8.66699 0 15.667 -0.333008 21 -1v-68c-28.667 -4 -47.834 -11 -57.501 -21s-14.5 -28.333 -14.5 -55v-62h72v-67h-72zM432.001 0h-76v667h76v-667z" />
    <glyph glyph-name=".null" horiz-adv-x="0" 
 />
    <glyph glyph-name="nonmarkingreturn" horiz-adv-x="333" 
 />
    <glyph glyph-name="periodcentered" horiz-adv-x="231" 
d="M115 295c15.333 0 27.833 -4.99902 37.5 -14.999s14.5 -22.667 14.5 -38c0 -14.667 -5 -26.834 -15 -36.501s-22.333 -14.5 -37 -14.5c-15.333 0 -27.833 4.83301 -37.5 14.5s-14.5 22.167 -14.5 37.5s4.83301 27.833 14.5 37.5s22.167 14.5 37.5 14.5z" />
  </font>
</defs>
</svg>
